<svg width="297" height="298" viewBox="0 0 297 298" fill="none" xmlns="http://www.w3.org/2000/svg">
<g filter="url(#filter0_d_431_1734)">
<ellipse cx="148.5" cy="149" rx="134.5" ry="135" fill="white"/>
</g>
<path fill-rule="evenodd" clip-rule="evenodd" d="M124.12 29.0517C124.481 31.6587 128.472 41.1475 132.17 48.1936C136.462 56.3715 141.057 63.4715 146.459 70.2752C147.506 71.5944 148.586 72.7928 148.859 72.9379C149.32 73.1834 149.298 72.9327 148.536 69.358L147.716 65.5141L146.056 63.6015C141.76 58.6541 137.714 52.3238 130.55 39.3441C126.008 31.1154 124.725 28.8357 124.316 28.27C123.976 27.7994 123.957 27.8752 124.12 29.0517ZM110.106 30.2242C112.084 35.3777 116.784 45.191 119.654 50.1577C121.71 53.7153 125.171 58.8453 127.213 61.3622C128.911 63.4551 131.967 66.4881 133.705 67.8055C134.86 68.6815 136.718 69.4974 136.418 68.9971C136.306 68.8108 134.129 65.6094 131.579 61.8833C125.975 53.6929 120.772 45.7697 115.486 37.3734C113.314 33.9248 111.092 30.583 110.547 29.9472L109.557 28.7911L110.106 30.2242ZM100.772 35.2983C101.294 37.4545 103.542 43.063 105.369 46.7703C108.842 53.8158 112.79 59.448 117.699 64.3598C120.624 67.2862 123.388 69.4664 125.953 70.8701L127.523 71.7289L126.588 70.5842C123.344 66.6132 119.189 61.3119 116.501 57.7142C112.495 52.3514 107.128 44.4114 104.255 39.5974C103.012 37.5155 101.678 35.5221 101.29 35.1677L100.584 34.5236L100.772 35.2983ZM145.593 43.1875C145.986 49.8073 147.141 56.1354 148.63 59.8321C149.085 60.9604 150.446 63.7008 151.655 65.9221C154.73 71.5694 155.231 72.9718 155.386 76.3532C155.544 79.7888 155.255 81.001 151.923 90.8734C148.177 101.97 147.29 106.177 147.846 110.21C148.181 112.641 148.972 115.015 150.064 116.867C151.043 118.528 153.597 121.015 155.848 122.501C156.855 123.166 159.33 124.615 161.349 125.721C166.569 128.583 169.196 130.367 169.892 131.524C170.214 132.06 170.715 132.761 171.005 133.083C171.51 133.644 171.555 133.65 172.051 133.214C172.336 132.963 172.885 132.073 173.271 131.235L173.973 129.712L175.091 131.04C175.706 131.77 176.375 132.367 176.577 132.367C177.131 132.367 178.416 130.448 178.753 129.115C178.918 128.468 179.157 127.937 179.286 127.937C179.415 127.937 180.138 128.718 180.892 129.672L182.263 131.405L183.014 129.346C183.428 128.213 183.817 127.148 183.88 126.98C183.967 126.747 184.327 126.752 185.386 127C186.152 127.179 187.157 127.523 187.62 127.763C188.318 128.126 188.556 128.502 189.011 129.958C189.876 132.729 190.389 136.631 190.201 139.012C189.953 142.151 189.099 145.368 187.871 147.787C186.773 149.95 184.885 152.691 184.494 152.691C184.381 152.691 184.287 152.311 184.287 151.845C184.285 150.643 183.589 146.55 183.121 144.993C182.721 143.66 181.271 141.226 180.878 141.226C180.759 141.226 180.728 143.252 180.809 145.727C180.927 149.376 180.866 150.73 180.486 152.883L180.016 155.539L180.678 156.395C181.042 156.866 182.209 158.193 183.272 159.344C184.335 160.494 185.836 162.165 186.608 163.057L188.01 164.678H186.468H184.927L184.577 163.502C184.385 162.856 184.141 162.273 184.036 162.208C183.93 162.143 183.525 163.518 183.137 165.263C182.748 167.007 182.404 168.461 182.372 168.492C182.286 168.578 177.362 166.416 177.209 166.226C177.137 166.136 176.692 165.988 176.22 165.896C175.405 165.739 175.377 165.759 175.664 166.292C175.953 166.829 176.442 171.195 176.24 171.439C176.187 171.504 174.904 170.331 173.389 168.833L170.634 166.111L170.79 167.283C170.875 167.928 171.002 168.866 171.071 169.368L171.197 170.28L169.418 168.448C167.241 166.205 159.687 158.077 159.054 157.296C158.614 156.754 158.622 156.618 159.246 154.064C159.995 150.995 161.51 146.273 163.361 141.236C164.121 139.167 164.619 137.402 164.572 136.936C164.497 136.17 164.45 136.207 163.092 138.1C162.32 139.174 161.347 140.649 160.93 141.376L160.171 142.699L156.303 143.535C152.02 144.461 148.074 145.146 143.128 145.822C140.709 146.152 137.931 146.273 132.511 146.285C125.905 146.299 124.882 146.242 122.286 145.717C120.7 145.396 118.823 144.958 118.114 144.743C117.406 144.528 116.781 144.397 116.726 144.452C116.671 144.506 117.405 145.103 118.357 145.779C122.283 148.563 126.578 149.902 134.28 150.741C135.11 150.831 135.788 150.952 135.788 151.009C135.788 151.207 130.816 158.299 129.636 159.785C127.944 161.914 125.258 164.022 122.686 165.24C117.989 167.464 114.654 170.154 112.443 173.502C110.778 176.023 109.665 178.884 108.896 182.62C108.125 186.37 107.657 192.872 107.889 196.642C108.055 199.344 108.027 199.618 107.499 200.466C106.921 201.396 105.14 202.46 104.162 202.46C103.873 202.46 103.024 202.279 102.275 202.058C101.214 201.745 100.771 201.442 100.273 200.69C99.2595 199.161 98.7761 196.935 98.78 193.817C98.7834 190.892 99.2669 187.744 100.163 184.807C101.027 181.98 103.155 177.99 105.284 175.208C110.572 168.299 113.51 163.126 114.712 158.61C116.052 153.577 115.452 148.199 113.083 143.985C112.182 142.383 110.067 140.107 108.269 138.806C107.471 138.229 106.776 137.723 106.724 137.681C106.671 137.64 107.231 136.916 107.969 136.074C108.706 135.231 109.309 134.466 109.309 134.374C109.309 134.197 104.691 132.721 99.5175 131.245C97.8087 130.758 96.3065 130.195 96.1791 129.995C96.0135 129.735 95.9461 129.724 95.9432 129.957C95.9411 130.136 95.6239 130.283 95.2382 130.283H94.537L95.0851 130.869C95.4988 131.312 95.9626 132.985 96.9782 137.699C97.7183 141.134 98.3527 143.973 98.3884 144.008C98.4238 144.043 99.7007 142.973 101.226 141.629L103.999 139.185L105.016 139.989C108.03 142.372 110.03 144.886 110.891 147.375C111.569 149.333 111.789 152.182 111.437 154.439C110.753 158.816 108.637 162.8 104.289 167.892C99.291 173.745 97.5093 176.53 95.9731 180.891C94.7566 184.345 94.2994 187.221 94.3257 191.256C94.3521 195.29 94.9506 198.651 96.0562 200.973C96.9174 202.783 98.9143 204.593 100.92 205.383C102.912 206.167 105.866 206.169 107.377 205.387C108.827 204.637 110.502 202.696 110.988 201.202C111.206 200.532 111.809 197.415 112.327 194.275C113.362 188.007 114.612 182.797 115.841 179.629C116.952 176.767 118.869 173.562 120.649 171.592C121.682 170.449 123.334 169.147 125.892 167.46C128.207 165.934 130.403 164.23 131.668 162.981C132.791 161.872 135.239 158.957 137.109 156.503C138.978 154.048 140.773 151.746 141.097 151.387C141.635 150.791 142.04 150.695 145.75 150.279C147.985 150.028 151.465 149.488 153.484 149.078C155.502 148.669 157.196 148.368 157.247 148.411C157.297 148.454 157.093 149.229 156.793 150.134C156.108 152.201 155.499 155.086 155.417 156.655C155.355 157.842 155.398 157.91 158.519 161.601C160.26 163.659 163.055 166.765 164.731 168.504L167.779 171.666L162.357 177.175C157.096 182.522 155.685 183.783 156.067 182.793C156.161 182.548 156.373 181.262 156.537 179.935C156.913 176.897 156.581 174.425 155.487 172.1C155.047 171.167 154.178 169.922 153.527 169.293C151.315 167.156 147.565 165.842 142.796 165.531C140.293 165.368 132.642 165.942 132.642 166.293C132.642 166.683 134.294 167.247 137.099 167.815C145.547 169.528 150.854 172.482 152.278 176.262C152.58 177.067 152.828 178.316 152.828 179.038C152.828 179.76 152.527 181.25 152.159 182.35C151.152 185.362 148.594 190.3 146.604 193.073C144.762 195.64 139.309 201.319 136.878 203.2L135.478 204.284H143.721C149.077 204.284 152.255 204.385 152.797 204.573C154.147 205.041 154.506 206.038 154.66 209.756L154.795 213.013L155.665 211.841C156.145 211.196 156.645 210.668 156.777 210.668C156.909 210.668 157.918 209.743 159.018 208.613L161.02 206.558L162.966 206.722C164.752 206.872 165.071 206.818 166.866 206.069L168.82 205.254L168.819 202.88C168.818 201.574 168.65 197.75 168.445 194.382C168.24 191.015 167.999 186.659 167.909 184.703L167.746 181.147L168.52 180.599C168.946 180.298 169.358 180.051 169.436 180.051C169.514 180.051 170.139 180.981 170.824 182.117C171.808 183.75 172.155 184.136 172.477 183.959C172.7 183.835 173.282 182.782 173.769 181.619C174.419 180.066 174.767 179.526 175.08 179.587C175.358 179.641 175.484 179.894 175.442 180.317C175.408 180.672 175.074 184.305 174.7 188.389C174.326 192.474 173.811 197.633 173.556 199.854C173.216 202.805 173.169 203.973 173.38 204.188C173.819 204.635 181.601 207.411 182.416 207.411C182.808 207.411 183.591 207.645 184.157 207.932C184.755 208.235 185.703 208.453 186.422 208.453C187.665 208.453 188.055 208.671 188.864 209.818C189.08 210.125 189.348 210.285 189.459 210.174C189.571 210.064 189.662 209.211 189.662 208.279C189.662 206.745 189.592 206.524 188.926 205.955C188.412 205.515 187.873 205.326 187.133 205.326C186.472 205.326 185.825 205.131 185.408 204.805C184.728 204.274 183.525 204.156 182.584 204.528C182.198 204.68 181.312 204.364 179.241 203.335C177.691 202.565 176.419 201.789 176.414 201.611C176.41 201.433 177.027 195.571 177.787 188.585C178.707 180.12 179.267 175.882 179.464 175.882C179.856 175.882 185.599 181.782 185.599 182.185C185.599 182.709 184.225 183.96 183.649 183.961C182.905 183.962 181.524 184.838 180.991 185.648C180.747 186.016 180.446 187.107 180.321 188.07C180.196 189.034 180.019 190.378 179.929 191.056C179.794 192.071 179.886 192.532 180.45 193.661C180.827 194.416 181.556 195.503 182.069 196.076L183.003 197.118L182.873 194.773C182.769 192.896 182.792 192.662 182.988 193.601C183.357 195.367 184.703 197.881 185.785 198.826C186.315 199.288 187.735 200.137 188.942 200.712C190.719 201.56 191.506 201.782 193.085 201.883C195.371 202.029 197.959 201.588 199.177 200.845C200.289 200.167 202.573 197.352 204.214 194.639C205.381 192.71 207.322 188.222 207.71 186.557C207.851 185.954 207.47 185.597 203.303 182.425L198.741 178.953L194.772 173.313C191.346 168.444 190.878 167.663 191.347 167.591C191.985 167.493 192.026 167.217 191.521 166.427C191.318 166.11 190.085 163.946 188.781 161.619L186.411 157.388L188.041 155.235C190.048 152.585 191.607 149.642 192.711 146.417C193.427 144.326 193.569 143.488 193.67 140.76C193.743 138.819 193.665 136.92 193.473 135.939C193.059 133.82 191.939 131.19 190.653 129.315C190.084 128.485 189.549 127.373 189.463 126.843C189.213 125.309 188.542 124.16 186.715 122.138C185.776 121.1 184.824 119.87 184.6 119.405C184.243 118.667 184.236 118.333 184.537 116.799C185.017 114.354 185.795 112.375 186.611 111.526C186.992 111.131 188.069 110.542 189.007 110.219C192.625 108.969 196.78 106.528 198.109 104.872C198.51 104.373 198.975 103.965 199.142 103.965C199.62 103.965 200.803 105.507 200.808 106.135C200.81 106.446 200.908 106.852 201.026 107.037C201.376 107.585 202.421 103.814 202.568 101.473C202.679 99.7067 202.615 99.209 202.169 98.3465C201.55 97.15 200.506 96.1265 199.274 95.5081C197.913 94.8252 195.134 94.3345 192.546 94.3199L190.186 94.3066L189.4 92.9488C186.612 88.1353 177.763 88.2891 168.963 93.3042C165.793 95.111 163.06 97.2237 160.668 99.7158C158.914 101.543 156.499 104.686 156.499 105.141C156.499 105.23 156.705 105.245 156.957 105.175C157.21 105.104 157.819 104.965 158.312 104.866L159.208 104.686L158.625 105.433C157.519 106.85 156.499 108.498 156.499 108.867C156.499 109.163 156.785 109.201 157.94 109.057C158.734 108.959 159.382 108.949 159.382 109.035C159.382 109.121 159.041 109.863 158.624 110.684C158.207 111.505 157.545 113.199 157.153 114.449C156.509 116.503 156.393 116.695 155.948 116.458C155.124 116.02 153.368 113.495 152.76 111.876C152.286 110.611 152.191 109.834 152.211 107.353C152.23 104.973 152.38 103.821 152.939 101.756C153.327 100.327 154.713 96.3985 156.019 93.0273C157.325 89.656 158.689 85.784 159.05 84.4225C160.224 79.998 159.875 75.5642 157.952 70.4873C157.587 69.5232 156.432 67.1937 155.386 65.3103C154.34 63.4272 152.966 60.7717 152.333 59.4095C150.795 56.0989 148.942 50.3961 147.57 44.7509C146.585 40.6975 146.382 40.1258 145.928 40.1258C145.432 40.1258 145.418 40.2519 145.593 43.1875ZM98.1197 48.8549C98.2009 49.1415 98.4049 49.9029 98.5724 50.5468C98.7402 51.1906 99.5096 53.0081 100.282 54.5856C103.32 60.7892 107.022 66.2043 111.103 70.4177C113.958 73.3645 118.117 76.4903 121.456 78.198C122.873 78.9229 124.09 79.4597 124.159 79.3907C124.297 79.2544 122.594 77.372 118.074 72.6651C111.857 66.1902 105.16 58.2486 100.522 51.8514C99.1195 49.9167 98.0384 48.5683 98.1197 48.8549ZM95.9393 71.2698C95.9393 71.8 99.2249 77.876 100.656 79.9928C102.706 83.024 106.857 87.3208 109.472 89.1172C112.875 91.4555 117.909 93.5307 119.459 93.2339C119.756 93.1771 118.937 92.5405 117.172 91.4568C110.793 87.5397 104.831 81.909 99.1022 74.3906C97.8266 72.7164 95.9393 70.8544 95.9393 71.2698ZM97.5316 90.6806C97.9078 92.4157 99.4286 95.3393 101.167 97.6695C103.754 101.138 107.198 103.486 110.974 104.356C112.201 104.639 113.746 104.74 116.069 104.69L119.403 104.617L117.961 103.925C117.168 103.545 115.394 102.812 114.019 102.295C108.36 100.169 103.228 96.4292 98.6193 91.0714L97.2784 89.5124L97.5316 90.6806ZM184.504 92.9017C186.091 93.3699 187.499 94.6357 187.952 96.0006L188.261 96.9298L190.666 96.9337C193.49 96.9381 196.02 97.4715 197.609 98.3971C198.256 98.7741 199.078 99.5777 199.514 100.261C200.535 101.862 200.523 102.349 199.481 101.611C198.397 100.844 196.955 100.688 195.716 101.202C195.154 101.436 193.98 101.62 193.055 101.62C192.145 101.62 191.086 101.739 190.701 101.884C190.317 102.029 188.542 102.381 186.758 102.665C184.973 102.95 183.036 103.373 182.453 103.605C181.869 103.837 180.982 104.502 180.482 105.083C179.981 105.664 179.612 106.18 179.661 106.228C179.71 106.277 180.538 106.022 181.501 105.662C182.974 105.111 183.698 105.007 186.072 105.007C187.836 105.007 189.429 104.855 190.326 104.602C191.114 104.379 192.152 104.207 192.632 104.22C193.112 104.234 194.159 103.947 194.958 103.584C196.394 102.93 197.396 102.739 197.395 103.118C197.394 103.448 195.276 104.665 193.07 105.603C191.917 106.093 189.4 106.987 187.478 107.59L183.983 108.685L183.454 109.875C182.822 111.294 182.551 114.997 182.833 118.363C182.993 120.278 183.156 120.838 183.917 122.093C184.409 122.906 184.812 123.598 184.812 123.632C184.812 123.665 184.196 123.533 183.444 123.339C182.692 123.145 181.925 122.987 181.74 122.987C181.508 122.987 181.404 123.424 181.404 124.398C181.404 126.894 181.296 126.906 179.016 124.652C177.887 123.536 176.871 122.715 176.758 122.826C176.646 122.937 176.495 124.338 176.423 125.939L176.292 128.849L174.761 126.439C173.919 125.114 173.123 124.029 172.991 124.029C172.86 124.029 172.753 124.077 172.753 124.136C172.753 124.352 171.382 129.376 171.274 129.555C171.005 130 170.277 129.292 169.053 127.396C167.572 125.101 165.578 123.151 162.667 121.151L160.693 119.795L160.695 118.329C160.698 115.517 162.033 111.287 164.194 107.24C164.721 106.253 165.096 105.389 165.027 105.32C164.959 105.251 164.18 105.397 163.299 105.643C162.416 105.888 161.651 106.046 161.598 105.993C161.544 105.94 162.427 105.159 163.559 104.257C164.69 103.354 166.013 102.201 166.497 101.693L167.378 100.77L166.33 100.918C165.753 100.999 164.691 101.14 163.97 101.23L162.659 101.395L163.315 100.848C163.675 100.548 165.198 99.4763 166.698 98.4679C172.189 94.7762 177.761 92.584 181.815 92.5207C182.546 92.5095 183.756 92.6807 184.504 92.9017ZM178.53 95.0076C178.038 95.4193 177.311 96.4824 176.888 97.4085C176.471 98.3225 176.192 99.1321 176.268 99.2074C176.343 99.2827 176.852 98.9549 177.397 98.4791C178.289 97.7003 178.397 97.6641 178.48 98.1188C178.53 98.3963 178.877 98.9461 179.25 99.34C179.791 99.9104 180.164 100.057 181.08 100.057C182.002 100.057 182.383 99.9055 182.997 99.295C183.57 98.7256 183.763 98.2881 183.763 97.5624C183.763 96.7953 183.956 96.4058 184.681 95.7059C185.743 94.6803 185.876 94.1902 185.009 94.4984C184.279 94.7574 183.061 94.7514 180.998 94.4786C179.494 94.2795 179.368 94.3064 178.53 95.0076ZM100.207 103.441C100.293 104.084 100.844 105.55 101.432 106.698C103.314 110.375 106.164 113.208 109.703 114.917C112.801 116.414 114.995 116.83 119.396 116.755C120.639 116.734 120.673 116.715 120.13 116.337C119.817 116.119 118.564 115.526 117.346 115.019C114.626 113.887 111.053 111.81 108.354 109.791C107.237 108.956 104.912 106.922 103.188 105.272L100.052 102.271L100.207 103.441ZM103.007 116.863C106.085 121.983 108.21 124.366 110.679 125.468C111.894 126.009 112.842 126.216 114.561 126.313C115.812 126.384 118.061 126.293 119.559 126.11L122.283 125.779L121.236 125.325C120.66 125.075 119.137 124.674 117.85 124.434C113.434 123.61 111.317 122.456 103.289 116.495L102.381 115.821L103.007 116.863ZM106.164 125.983C106.164 126.068 106.591 126.807 107.114 127.624C109.248 130.96 112.205 133.675 115.489 135.313C117.796 136.464 119.902 136.892 123.335 136.908C125.065 136.916 127.187 136.824 128.049 136.703C129.59 136.487 129.605 136.477 128.921 136.121C128.538 135.922 127.061 135.534 125.639 135.26C120.694 134.308 115.694 132.085 109.86 128.247C108.187 127.147 106.672 126.152 106.491 126.037C106.311 125.921 106.164 125.897 106.164 125.983ZM103.006 138.716C102.94 138.779 102.225 138.912 101.416 139.012L99.9456 139.193L99.0021 136.757C98.483 135.417 97.9791 134.087 97.8821 133.8C97.7851 133.514 98.925 134.476 100.415 135.94C101.906 137.403 103.072 138.653 103.006 138.716ZM188.649 169.874C190.628 173.315 193.005 176.894 194.753 179.065C195.414 179.885 197.753 182.088 199.952 183.959C202.151 185.831 203.95 187.491 203.95 187.648C203.95 187.804 203.2 189.483 202.282 191.378C200.554 194.951 198.999 197.442 197.817 198.533C197.232 199.073 196.806 199.183 194.924 199.281C193.193 199.372 192.331 199.28 190.922 198.854C189.783 198.51 188.72 197.967 188.017 197.369C187.408 196.851 186.909 196.348 186.909 196.251C186.909 196.155 187.434 196.076 188.074 196.076C189.034 196.076 189.395 195.927 190.119 195.229C190.602 194.763 191.171 194.382 191.383 194.382C191.595 194.382 192.203 194.676 192.733 195.034C193.264 195.392 193.851 195.685 194.039 195.684C194.724 195.682 196.051 194.655 196.837 193.52C197.619 192.39 198.821 189.719 198.632 189.531C198.58 189.48 197.709 189.282 196.695 189.091C194.455 188.671 192.649 187.663 191.633 186.27C191.216 185.697 190.835 185.112 190.787 184.97C190.623 184.48 189.825 185.047 189.665 185.768C189.529 186.384 189.274 186.56 187.938 186.962C186.508 187.393 186.328 187.531 185.876 188.546C185.512 189.364 185.087 189.808 184.273 190.221L183.164 190.783L183.342 189.675C183.665 187.669 184.098 187.266 188.134 185.216C190.199 184.167 191.889 183.231 191.889 183.137C191.89 183.043 188.853 180.062 185.14 176.512C179.225 170.856 177.403 168.828 177.844 168.39C177.908 168.326 179.384 169.243 181.123 170.429C182.861 171.615 184.354 172.516 184.44 172.43C184.781 172.091 185.062 170.169 185.068 168.134L185.074 165.989L185.996 166.426C186.739 166.778 187.253 167.445 188.649 169.874ZM174.999 173.438C175.955 174.163 176.07 174.684 175.728 176.745L175.563 177.737L174.702 176.908L173.841 176.079L172.95 177.835L172.06 179.59L171.212 178.277C169.886 176.223 169.817 176.206 168.588 177.632C167.605 178.771 167.514 178.823 167.521 178.227C167.527 177.799 168.095 176.96 169.179 175.78L170.827 173.984L172.01 174.672C172.66 175.051 173.255 175.361 173.332 175.361C173.409 175.361 173.55 174.775 173.646 174.058C173.741 173.342 173.882 172.755 173.959 172.755C174.036 172.755 174.503 173.062 174.999 173.438ZM164.617 187.412C164.947 190.887 165.415 195.703 165.657 198.114L166.098 202.496L165.403 202.987C164.828 203.394 164.398 203.456 162.898 203.343C161.465 203.235 160.895 203.306 160.169 203.68C159.664 203.941 158.958 204.606 158.6 205.158L157.948 206.163L157.75 205.215C157.641 204.694 157.384 203.948 157.18 203.559C156.623 202.499 155.392 201.44 154.383 201.152C153.202 200.815 150.074 200.828 146.791 201.183C145.334 201.341 144.075 201.403 143.994 201.323C143.912 201.242 144.678 200.29 145.695 199.207C148.713 195.996 152.291 191.061 154.424 187.17C154.717 186.635 155.491 186.096 157.046 185.346C158.259 184.761 160.254 183.573 161.48 182.706C162.705 181.839 163.778 181.121 163.863 181.111C163.948 181.102 164.287 183.937 164.617 187.412ZM130.705 190.082C129.487 192.737 126.714 197.389 124.931 199.77C122.429 203.11 119.134 206.221 116.29 207.926C115.731 208.261 114.375 208.926 113.275 209.403C112.175 209.88 111.366 210.272 111.477 210.274C111.587 210.276 113.121 210.504 114.885 210.782C122.007 211.904 125.593 212.203 132.118 212.217C137.768 212.23 138.692 212.173 139.802 211.748C140.495 211.482 141.001 211.203 140.926 211.128C140.85 211.053 139.162 210.889 137.174 210.763C133.136 210.509 123.003 209.538 122.461 209.353C122.041 209.21 122.43 208.494 125.517 203.728C128.076 199.779 130.459 195.109 131.549 191.907C132.517 189.068 132.663 188.047 132.118 187.94C131.849 187.887 131.401 188.567 130.705 190.082ZM191.031 189.884C191.503 190.192 192.216 190.331 193.25 190.317L194.774 190.296V191.128C194.774 192.129 194.291 193.601 193.962 193.601C193.832 193.601 193.726 193.493 193.726 193.36C193.726 193.228 193.362 192.759 192.919 192.318C191.81 191.216 190.665 191.229 189.369 192.359C188.714 192.931 188.184 193.18 187.722 193.132C186.91 193.048 183.21 191.795 182.868 191.488C182.388 191.059 183.468 190.965 184.251 191.367C184.689 191.592 185.426 191.777 185.888 191.777C186.524 191.777 186.965 191.529 187.704 190.757C188.549 189.875 188.925 189.675 190.13 189.467C190.243 189.448 190.649 189.635 191.031 189.884ZM149.315 204.854C149.43 205.042 149.854 205.717 150.258 206.355C150.791 207.194 150.993 207.846 150.993 208.726C150.993 209.668 150.812 210.187 150.181 211.053L149.368 212.168L150.636 211.979C152.651 211.679 153.767 210.959 153.882 209.886C154.021 208.583 153.818 207.884 153.048 207.011C152.243 206.1 148.896 204.165 149.315 204.854ZM144.701 207.842C146.37 208.813 147.061 209.496 147.061 210.172C147.061 210.495 146.755 211.119 146.382 211.56L145.703 212.362H147.141C148.365 212.362 148.699 212.25 149.392 211.606C149.972 211.068 150.207 210.612 150.207 210.025C150.207 209.572 150.079 208.964 149.923 208.674C149.435 207.767 147.664 207.162 145.488 207.158L143.522 207.155L144.701 207.842ZM166.672 208.903C166.989 209.346 167.799 210.07 168.472 210.513C169.469 211.17 169.965 211.319 171.142 211.319C172.873 211.319 174.241 210.716 175.899 209.222L177.078 208.158L176.161 208.317C172.964 208.869 171.047 208.972 168.908 208.708C167.655 208.554 166.51 208.353 166.363 208.263C166.216 208.173 166.355 208.46 166.672 208.903ZM85.715 217.923C85.715 219.767 85.7947 220.17 86.2393 220.57C86.5277 220.829 86.7636 221.132 86.7636 221.243C86.7636 221.354 86.142 221.624 85.382 221.844C83.4058 222.415 81.6216 223.688 80.3021 225.47C77.2935 229.532 77.2254 235.746 80.1474 239.579C81.404 241.228 82.9397 242.388 84.8545 243.135C86.056 243.604 86.9138 243.729 88.992 243.742C91.4036 243.757 91.7536 243.692 93.3596 242.939C94.3199 242.489 95.6446 241.627 96.3037 241.023C96.9625 240.419 97.8284 239.264 98.2279 238.456C98.8668 237.162 98.9541 236.687 98.9541 234.51C98.9541 232.41 98.8566 231.838 98.3123 230.739C97.4941 229.085 95.8915 227.493 94.2284 226.679C93.1658 226.16 92.5361 226.043 90.8271 226.052C89.1899 226.06 88.4611 226.193 87.505 226.657C85.9367 227.419 84.471 228.837 83.8528 230.19C83.2066 231.604 83.2027 234.281 83.8447 235.683C84.4107 236.918 86.0967 238.499 87.4788 239.091C89.4395 239.93 92.296 239.473 93.7984 238.08C95.965 236.072 96.0208 231.988 93.9044 230.334C92.286 229.069 89.5307 229.033 88.0663 230.258C86.5803 231.5 86.137 233.054 86.8679 234.458C87.7087 236.075 89.3821 236.821 90.8237 236.222C91.9014 235.774 92.5312 234.89 92.5312 233.824C92.5312 233.216 92.3146 232.812 91.7245 232.318C90.754 231.507 89.586 231.444 88.8609 232.165C88.2322 232.79 88.1879 233.662 88.7448 234.452C89.0271 234.853 89.4209 235.031 90.0233 235.031C91.0738 235.031 91.59 234.49 91.4138 233.575C91.3014 232.99 91.3344 232.948 91.6561 233.268C92.4315 234.039 91.068 235.813 89.7001 235.813C89.3606 235.813 88.7379 235.47 88.3164 235.051C87.2688 234.01 87.2596 232.674 88.2928 231.647C88.7012 231.241 89.5155 230.766 90.1022 230.591C91.0305 230.315 91.2998 230.337 92.1744 230.763C94.3165 231.807 94.9981 234.227 93.6815 236.115C92.9574 237.154 91.2211 238.159 90.1544 238.156C88.1895 238.152 86.1606 236.882 85.3259 235.133C85.0797 234.618 84.8829 233.629 84.8884 232.936C84.9138 229.673 87.8906 227.195 91.3577 227.55C92.1148 227.628 93.1084 227.884 93.5659 228.119C94.8398 228.774 96.4395 230.318 97.0626 231.496C97.853 232.989 97.8292 235.474 97.0073 237.316C96.2431 239.029 93.9906 241.144 92.4515 241.594C91.8464 241.771 90.3487 241.921 89.1231 241.926C87.2531 241.935 86.659 241.827 85.4302 241.254C84.6246 240.878 83.5183 240.126 82.9714 239.583C82.4248 239.039 81.6092 237.822 81.1591 236.878C80.4209 235.33 80.3406 234.918 80.3406 232.682C80.3406 230.404 80.4109 230.061 81.2055 228.455C82.5785 225.681 84.0526 224.511 87.204 223.695C88.518 223.355 96.224 223.306 147.978 223.306C199.733 223.306 207.439 223.355 208.753 223.695C211.904 224.511 213.378 225.681 214.751 228.455C215.546 230.061 215.616 230.404 215.616 232.682C215.616 234.918 215.536 235.33 214.798 236.878C214.347 237.822 213.532 239.039 212.985 239.583C212.438 240.126 211.332 240.878 210.526 241.254C209.298 241.827 208.704 241.935 206.834 241.926C205.608 241.921 204.11 241.771 203.505 241.594C201.966 241.144 199.714 239.029 198.949 237.316C198.127 235.474 198.104 232.989 198.894 231.496C199.517 230.318 201.117 228.774 202.391 228.119C202.848 227.884 203.842 227.628 204.599 227.55C207.187 227.285 209.458 228.522 210.634 230.838C210.963 231.486 211.056 232.167 210.979 233.368C210.892 234.724 210.733 235.184 210.071 235.999C209.047 237.257 208.015 237.854 206.503 238.059C205.566 238.187 205.041 238.099 204.13 237.66C203.477 237.346 202.657 236.663 202.275 236.115C200.959 234.227 201.64 231.807 203.782 230.763C204.657 230.337 204.926 230.315 205.854 230.591C208.31 231.323 209.187 233.514 207.64 235.051C206.646 236.04 205.71 236.04 204.716 235.051C203.882 234.222 203.758 233.69 204.297 233.245C204.573 233.017 204.622 233.106 204.537 233.684C204.399 234.613 204.97 235.091 206.087 234.984C206.699 234.925 207.062 234.699 207.341 234.202C208.14 232.781 206.854 231.321 205.174 231.74C203.613 232.129 202.929 233.951 203.853 235.261C204.088 235.595 204.664 236.027 205.133 236.222C206.575 236.821 208.248 236.075 209.089 234.458C209.82 233.054 209.376 231.5 207.89 230.258C206.426 229.033 203.671 229.069 202.052 230.334C199.936 231.988 199.992 236.072 202.158 238.08C203.661 239.473 206.517 239.93 208.478 239.091C209.86 238.499 211.546 236.918 212.112 235.683C212.754 234.281 212.75 231.604 212.104 230.19C211.486 228.837 210.02 227.419 208.452 226.657C207.496 226.193 206.767 226.06 205.13 226.052C203.421 226.043 202.79 226.16 201.721 226.681C199.867 227.585 198.081 229.496 197.39 231.315C196.928 232.534 196.841 233.214 196.928 234.929C197.01 236.547 197.202 237.38 197.746 238.484C198.136 239.277 198.992 240.417 199.648 241.018C200.304 241.619 201.629 242.482 202.592 242.935C204.207 243.696 204.547 243.759 206.965 243.743C209.037 243.73 209.902 243.603 211.094 243.138C216.077 241.194 218.889 235.815 217.747 230.407C217.061 227.154 215.437 224.535 213.191 223.056C212.512 222.609 211.334 222.063 210.575 221.844C209.815 221.624 209.193 221.354 209.193 221.243C209.193 221.132 209.429 220.829 209.717 220.57C210.162 220.17 210.242 219.767 210.242 217.923V215.749H147.978H85.715V217.923ZM208.144 218.094V218.876H147.978H87.8122V218.094V217.312H147.978H208.144V218.094ZM206.965 220.579C206.305 220.879 196.776 220.937 147.978 220.937C99.1804 220.937 89.6513 220.879 88.992 220.579C88.3224 220.274 97.0831 220.221 147.978 220.221C198.874 220.221 207.634 220.274 206.965 220.579ZM158.334 228.368C158.334 228.807 159.555 229.82 160.085 229.82C160.514 229.82 161.742 228.67 161.742 228.268C161.742 227.846 160.768 227.947 160.598 228.387C160.515 228.602 160.263 228.777 160.038 228.777C159.812 228.777 159.56 228.602 159.477 228.387C159.285 227.889 158.334 227.873 158.334 228.368ZM113.174 230.192C112.632 230.384 112.005 230.693 111.78 230.878C110.573 231.874 110.251 234.296 111.134 235.735C111.811 236.839 112.924 237.376 114.531 237.376C115.626 237.376 115.999 237.242 116.769 236.57C117.966 235.525 118.419 234.104 117.999 232.71C117.662 231.593 116.14 230.08 115.352 230.08C115.08 230.08 114.701 230.027 114.509 229.961C114.317 229.895 113.716 229.999 113.174 230.192ZM134.259 230.085C133.107 230.347 131.916 231.513 131.546 232.74C131.135 234.102 131.6 235.536 132.785 236.57C133.555 237.242 133.928 237.376 135.023 237.376C135.747 237.376 136.691 237.195 137.123 236.973C139.494 235.754 139.527 231.698 137.176 230.52C136.113 229.988 135.25 229.859 134.259 230.085ZM178.564 230.079C177.41 230.35 176.22 231.517 175.851 232.74C175.441 234.102 175.905 235.536 177.091 236.57C177.86 237.242 178.233 237.376 179.329 237.376C181.856 237.376 183.236 236.009 183.238 233.502C183.239 232.224 183.151 232.016 182.221 231.092C181.661 230.536 180.963 230.08 180.67 230.08C180.376 230.08 179.979 230.034 179.787 229.977C179.595 229.921 179.045 229.966 178.564 230.079ZM105.115 230.862C105.115 231.522 105.217 231.644 105.77 231.644H106.426V234.51V237.376H107.343H108.261V234.51V231.644H108.916C109.47 231.644 109.572 231.522 109.572 230.862V230.08H107.343H105.115V230.862ZM120.058 233.728V237.376H120.845C121.6 237.376 121.631 237.331 121.631 236.22V235.063L122.745 234.896C123.358 234.805 124.07 234.576 124.328 234.389C125.005 233.896 125.325 232.57 124.995 231.629C124.844 231.198 124.385 230.674 123.975 230.463C123.561 230.25 122.527 230.08 121.644 230.08H120.058V233.728ZM126.874 233.728V237.376H127.661H128.447V234.51V231.644H129.496C130.486 231.644 130.545 231.6 130.545 230.862V230.08H128.709H126.874V233.728ZM140.769 233.728V237.376H142.461C143.391 237.376 144.44 237.246 144.791 237.087C145.469 236.78 146.012 235.861 146.012 235.019C146.012 234.739 145.764 234.264 145.462 233.963C145.061 233.565 144.99 233.337 145.199 233.129C145.524 232.806 145.581 231.404 145.287 230.966C144.893 230.379 143.904 230.08 142.359 230.08H140.769V233.728ZM147.847 233.728V237.376H149.277C150.063 237.376 150.994 237.246 151.345 237.087C152.063 236.762 152.566 235.851 152.566 234.877C152.566 234.101 151.489 232.947 150.764 232.947C149.648 232.947 149.42 232.677 149.42 231.355C149.42 230.112 149.401 230.08 148.634 230.08H147.847V233.728ZM153.09 233.728V237.376H154.008H154.926V233.728V230.08H154.008H153.09V233.728ZM157.023 233.728V237.376H157.654C158.153 237.376 158.605 236.907 159.817 235.133L161.349 232.889L161.424 235.133L161.5 237.376H162.276H163.053V233.728V230.08L162.332 230.089C161.727 230.096 161.379 230.437 160.169 232.212L158.727 234.326L158.651 232.203L158.575 230.08H157.799H157.023V233.728ZM170.159 230.667C170.037 230.989 169.603 232.279 169.194 233.533C168.766 234.843 168.306 235.813 168.111 235.813C167.874 235.813 167.772 236.247 167.772 237.246C167.772 238.665 167.779 238.679 168.558 238.679C169.222 238.679 169.345 238.578 169.345 238.028C169.345 237.391 169.388 237.376 171.311 237.376C173.233 237.376 173.277 237.391 173.277 238.028C173.277 238.578 173.399 238.679 174.063 238.679C174.833 238.679 174.85 238.651 174.85 237.368C174.85 236.465 174.732 236.012 174.471 235.912C174.262 235.833 173.663 234.488 173.138 232.924L172.185 230.08H171.283C170.587 230.08 170.329 230.215 170.159 230.667ZM185.074 233.728V237.376H185.861H186.647L186.674 234.705L186.701 232.035L187.542 234.64C188.28 236.93 188.455 237.246 188.977 237.246C189.498 237.246 189.681 236.921 190.444 234.64L191.316 232.035L191.341 234.705L191.366 237.376H192.153H192.939V233.728V230.08H191.764H190.588L189.882 232.425C189.493 233.715 189.097 234.771 189.001 234.771C188.905 234.771 188.501 233.715 188.103 232.425L187.38 230.08H186.227H185.074V233.728ZM115.744 232.023C116.21 232.485 116.388 232.947 116.388 233.688C116.388 234.942 115.762 235.755 114.629 235.973C113.925 236.108 113.657 236.005 112.99 235.342C112.416 234.771 112.196 234.308 112.202 233.683C112.211 232.744 112.552 232.166 113.373 231.698C114.212 231.22 115.052 231.335 115.744 232.023ZM136.14 231.672C136.491 231.832 136.91 232.247 137.07 232.597C137.562 233.671 137.41 234.502 136.564 235.342C135.897 236.005 135.629 236.108 134.925 235.973C133.792 235.755 133.166 234.942 133.166 233.688C133.166 232.947 133.344 232.485 133.81 232.023C134.513 231.324 135.157 231.227 136.14 231.672ZM180.438 231.686C181.255 232.119 181.648 232.71 181.658 233.521C181.677 235.17 180.412 236.294 178.947 235.928C178.008 235.694 177.472 234.869 177.472 233.658C177.472 232.948 177.656 232.479 178.115 232.023C178.818 231.324 179.552 231.217 180.438 231.686ZM123.335 232.556C123.335 233.247 123.237 233.347 122.483 233.419C121.663 233.498 121.631 233.465 121.631 232.556C121.631 231.647 121.663 231.614 122.483 231.692C123.237 231.765 123.335 231.864 123.335 232.556ZM143.868 232.23C143.808 232.65 143.579 232.84 143.063 232.899C142.442 232.97 142.342 232.888 142.342 232.312C142.342 231.74 142.457 231.644 143.147 231.644C143.831 231.644 143.939 231.731 143.868 232.23ZM90.6454 233.27C90.5893 234.042 90.4362 234.4 90.1379 234.456C89.6982 234.538 88.8609 233.878 88.8609 233.449C88.8609 233.058 89.8742 232.165 90.3177 232.165C90.636 232.165 90.7083 232.409 90.6454 233.27ZM171.368 235.764C170.802 235.809 170.296 235.803 170.244 235.752C170.192 235.7 170.402 234.843 170.709 233.846L171.269 232.035L171.833 233.859L172.398 235.683L171.368 235.764ZM206.571 232.686C206.86 232.973 207.096 233.316 207.096 233.449C207.096 233.878 206.258 234.538 205.819 234.456C205.52 234.4 205.367 234.042 205.311 233.27C205.248 232.409 205.321 232.165 205.639 232.165C205.863 232.165 206.283 232.399 206.571 232.686ZM144.174 234.637C144.707 235.275 144.292 235.813 143.268 235.813C142.414 235.813 142.342 235.752 142.342 235.031C142.342 234.344 142.433 234.249 143.096 234.249C143.511 234.249 143.996 234.424 144.174 234.637ZM150.862 235.031C150.862 235.548 150.713 235.699 150.141 235.765C149.49 235.839 149.42 235.768 149.42 235.031C149.42 234.294 149.49 234.223 150.141 234.297C150.713 234.363 150.862 234.514 150.862 235.031ZM159.251 242.168C158.037 242.695 156.795 243.847 156.167 245.031C155.739 245.838 155.596 246.559 155.596 247.929C155.596 249.302 155.738 250.02 156.17 250.833C156.485 251.426 157.234 252.33 157.834 252.84C160.347 254.978 164.209 254.472 165.985 251.773C166.339 251.235 166.705 250.59 166.799 250.34C166.946 249.945 166.798 249.884 165.692 249.884C164.583 249.884 164.296 250.003 163.498 250.796C162.785 251.505 162.368 251.708 161.624 251.708C160.26 251.708 159.207 251.074 158.599 249.888C157.959 248.642 157.925 247.273 158.504 246.06C158.996 245.03 159.705 244.491 160.873 244.259C161.892 244.056 163.376 244.724 163.845 245.596C164.145 246.153 164.372 246.236 165.591 246.236H166.992L166.581 245.258C165.698 243.156 163.654 241.814 161.349 241.822C160.628 241.824 159.684 241.98 159.251 242.168ZM190.449 242.196C189.872 242.398 189.079 242.94 188.688 243.402C187.733 244.527 187.342 246.446 187.481 249.328C187.57 251.182 187.712 251.865 188.121 252.409C189.12 253.74 189.919 254.139 191.582 254.139C193.357 254.139 194.627 253.516 195.354 252.288C196.451 250.436 196.138 247.8 194.646 246.316C193.875 245.551 193.618 245.454 192.345 245.454C191.267 245.454 190.731 245.595 190.18 246.026L189.448 246.599L189.63 245.831C189.73 245.409 190.163 244.741 190.593 244.346C191.309 243.689 191.548 243.63 193.468 243.63H195.561V242.718V241.806L193.529 241.817C192.411 241.824 191.025 241.994 190.449 242.196ZM103.28 248.06V254.053H104.591H105.901V251.968V249.884H107.282C108.997 249.884 110.286 249.233 110.928 248.043C111.556 246.879 111.535 245.36 110.871 243.997C110.105 242.425 109.187 242.066 105.927 242.066H103.28V248.06ZM108.386 244.765C108.689 244.986 108.872 245.442 108.872 245.975C108.872 247.038 108.241 247.538 106.9 247.538H105.901V245.975V244.412H106.9C107.449 244.412 108.118 244.571 108.386 244.765ZM114.684 245.323C114.107 245.525 113.307 246.076 112.907 246.548C110.561 249.312 112.021 253.682 115.461 254.195C116.378 254.332 116.884 254.247 117.81 253.802C118.474 253.482 119.223 252.859 119.524 252.375C119.818 251.902 120.058 251.442 120.058 251.351C120.058 251.26 119.586 251.186 119.009 251.186C118.31 251.186 117.786 251.36 117.437 251.708C116.706 252.433 115.324 252.393 114.598 251.626C113.553 250.519 113.794 250.405 117.174 250.405C120.262 250.405 120.32 250.394 120.319 249.818C120.313 247.688 118.89 245.683 117.058 245.224C116.418 245.064 115.857 244.938 115.813 244.944C115.769 244.95 115.261 245.121 114.684 245.323ZM138.669 245.78C138.192 246.102 137.568 246.68 137.283 247.063C136.647 247.916 136.409 250.028 136.811 251.24C136.975 251.733 137.505 252.518 137.989 252.985C140.069 254.988 143.585 254.413 144.799 251.871C145.348 250.722 145.346 248.52 144.795 247.366C144.558 246.87 143.941 246.178 143.423 245.829C142.702 245.342 142.139 245.193 141.009 245.193C139.913 245.193 139.314 245.343 138.669 245.78ZM178.767 245.898C178.304 246.285 177.764 246.985 177.567 247.453C177.096 248.573 177.111 251.022 177.593 251.95C178.147 253.014 179.384 253.96 180.49 254.167C181.192 254.297 181.725 254.21 182.475 253.841C183.274 253.448 183.501 253.416 183.501 253.694C183.501 253.945 183.855 254.053 184.681 254.053H185.861V249.753V245.454H184.681C184.027 245.454 183.501 245.577 183.501 245.729C183.501 245.884 183.245 245.826 182.918 245.599C182.573 245.358 181.782 245.193 180.972 245.193C179.873 245.193 179.446 245.33 178.767 245.898ZM121.631 249.753V254.053H122.811H123.991V250.665V247.278H125.17C126.344 247.278 126.35 247.273 126.35 246.366V245.454H123.991H121.631V249.753ZM127.661 249.753V254.053L128.644 254.043C129.602 254.034 129.667 253.969 131.2 251.503L132.773 248.972L132.848 251.512L132.923 254.053H134.093H135.263V249.753V245.454L134.149 245.455L133.035 245.456L131.462 247.865L129.889 250.274L129.814 247.864L129.738 245.454H128.699H127.661V249.753ZM146.799 249.753V254.053H147.835H148.872L148.949 252.294L149.027 250.535L150.403 250.456L151.78 250.377V252.215V254.053H152.959H154.139V249.753V245.454H152.959H151.78V247.017V248.581H150.338H148.896V247.017V245.454H147.847H146.799V249.753ZM168.296 249.753V254.053H169.476H170.655V252.229V250.405H171.954H173.253L173.33 252.164L173.408 253.922L174.522 254.002L175.636 254.083V249.768V245.454H174.457H173.277V247.017V248.581H171.966H170.655V247.017V245.454H169.476H168.296V249.753ZM95.5872 247.655L94.8418 249.072L95.5633 250.39C96.2376 251.621 96.3508 251.708 97.2962 251.708H98.3076L97.6179 250.355L96.9281 249.002L97.6105 247.619L98.2929 246.236L97.3127 246.236C96.3923 246.237 96.2871 246.323 95.5872 247.655ZM98.8697 247.583L98.0869 248.931L98.7716 250.319C99.4197 251.633 99.5102 251.708 100.451 251.708C100.997 251.708 101.445 251.63 101.445 251.535C101.445 251.44 101.146 250.857 100.782 250.238L100.119 249.114L100.782 247.814C101.146 247.099 101.445 246.451 101.445 246.374C101.445 246.298 101.041 246.236 100.549 246.236C99.7453 246.236 99.572 246.375 98.8697 247.583ZM197.822 247.619L198.504 249.002L197.814 250.355L197.125 251.708H198.136C199.084 251.708 199.194 251.623 199.881 250.368L200.615 249.029L199.857 247.633C199.15 246.329 199.035 246.237 198.12 246.236L197.139 246.236L197.822 247.619ZM200.554 246.431C200.56 246.539 200.842 247.153 201.181 247.797L201.797 248.968L201.169 250.199C200.824 250.876 200.542 251.499 200.542 251.584C200.542 251.669 200.963 251.703 201.479 251.658C202.289 251.588 202.511 251.411 203.113 250.353L203.81 249.128L203.096 247.682C202.432 246.336 202.318 246.236 201.462 246.236C200.956 246.236 200.547 246.323 200.554 246.431ZM116.995 247.317C117.643 247.656 117.951 248.04 117.957 248.516C117.96 248.747 117.395 248.841 115.995 248.841C114.802 248.841 114.028 248.734 114.028 248.569C114.028 248.087 115.298 247.017 115.869 247.017C116.173 247.017 116.68 247.152 116.995 247.317ZM142.335 247.792C143.848 249.296 142.958 251.968 140.946 251.968C139.713 251.968 138.862 251.011 138.862 249.623C138.862 248.871 139.039 248.372 139.468 247.919C140.226 247.117 141.595 247.056 142.335 247.792ZM182.858 247.918C183.717 248.771 183.753 250.495 182.931 251.365C181.817 252.544 179.833 251.933 179.416 250.281C178.838 247.994 181.261 246.331 182.858 247.918ZM193.182 248.225C193.481 248.603 193.726 249.29 193.726 249.753C193.726 250.216 193.481 250.904 193.182 251.281C192.784 251.785 192.399 251.968 191.74 251.968C190.471 251.968 189.793 251.215 189.793 249.803C189.793 248.362 190.505 247.538 191.75 247.538C192.398 247.538 192.786 247.725 193.182 248.225ZM97.0018 257.554C96.7753 257.825 96.7659 258.07 96.9677 258.445C97.1835 258.846 97.6142 258.995 98.8865 259.111C99.7888 259.193 123.748 259.232 152.128 259.197C202.766 259.135 203.737 259.124 204.1 258.631C204.422 258.193 204.414 258.067 204.038 257.654C203.623 257.198 201.52 257.179 150.46 257.179C104.591 257.179 97.2716 257.231 97.0018 257.554ZM97.0377 261.544C97.1216 261.977 99.8809 262 150.6 262C201.319 262 204.078 261.977 204.162 261.544C204.246 261.111 201.554 261.088 150.6 261.088C99.6454 261.088 96.9538 261.111 97.0377 261.544Z" fill="black"/>
<defs>
<filter id="filter0_d_431_1734" x="0" y="0" width="297" height="298" filterUnits="userSpaceOnUse" color-interpolation-filters="sRGB">
<feFlood flood-opacity="0" result="BackgroundImageFix"/>
<feColorMatrix in="SourceAlpha" type="matrix" values="0 0 0 0 0 0 0 0 0 0 0 0 0 0 0 0 0 0 127 0" result="hardAlpha"/>
<feMorphology radius="4" operator="dilate" in="SourceAlpha" result="effect1_dropShadow_431_1734"/>
<feOffset/>
<feGaussianBlur stdDeviation="5"/>
<feComposite in2="hardAlpha" operator="out"/>
<feColorMatrix type="matrix" values="0 0 0 0 0 0 0 0 0 0 0 0 0 0 0 0 0 0 0.25 0"/>
<feBlend mode="normal" in2="BackgroundImageFix" result="effect1_dropShadow_431_1734"/>
<feBlend mode="normal" in="SourceGraphic" in2="effect1_dropShadow_431_1734" result="shape"/>
</filter>
</defs>
</svg>
