<svg width="69" height="107" viewBox="0 0 69 107" fill="none" xmlns="http://www.w3.org/2000/svg">
<path fill-rule="evenodd" clip-rule="evenodd" d="M22.7306 0.48089C22.9085 1.67297 24.8753 6.0119 26.6981 9.23381C28.8136 12.9733 31.078 16.2199 33.7403 19.331C34.2565 19.9342 34.789 20.4822 34.9235 20.5485C35.1507 20.6608 35.1396 20.5462 34.764 18.9116L34.3601 17.1539L33.5417 16.2793C31.4248 14.017 29.4306 11.1224 25.8997 5.18727C23.6613 1.42455 23.0288 0.382115 22.8272 0.123443C22.6597 -0.09174 22.6502 -0.0570677 22.7306 0.48089ZM15.8239 1.01706C16.7984 3.37359 19.115 7.86085 20.5295 10.132C21.5427 11.7587 23.2483 14.1045 24.2547 15.2554C25.0916 16.2124 26.5978 17.5992 27.4545 18.2017C28.024 18.6022 28.9398 18.9753 28.7919 18.7465C28.7367 18.6613 27.6635 17.1975 26.4068 15.4937C23.6446 11.7484 21.0806 8.12548 18.4751 4.28615C17.4049 2.70921 16.3097 1.18113 16.0412 0.890404L15.553 0.361741L15.8239 1.01706ZM11.2233 3.33725C11.4808 4.3232 12.5885 6.88776 13.4892 8.58301C15.2009 11.8047 17.1466 14.3801 19.5658 16.626C21.0073 17.9642 22.3697 18.9611 23.6341 19.603L24.4077 19.9957L23.947 19.4723C22.3481 17.6564 20.3005 15.2324 18.9757 13.5873C17.001 11.1351 14.3557 7.50436 12.9398 5.30308C12.3275 4.35108 11.67 3.43959 11.4786 3.27755L11.1308 2.98302L11.2233 3.33725ZM33.3137 6.94472C33.5076 9.97169 34.0768 12.8653 34.8107 14.5557C35.0346 15.0716 35.7056 16.3247 36.3015 17.3405C37.8167 19.9228 38.064 20.564 38.1405 22.1102C38.2183 23.6812 38.0758 24.2355 36.4334 28.7498C34.5874 33.8239 34.1503 35.7475 34.4241 37.5918C34.5892 38.7031 34.9791 39.7889 35.5174 40.636C35.9999 41.3953 37.2585 42.5327 38.3679 43.2121C38.8641 43.516 40.084 44.1786 41.0789 44.6845C43.652 45.9929 44.9464 46.8087 45.2898 47.3381C45.4485 47.5828 45.6954 47.9036 45.8383 48.051C46.0871 48.3075 46.109 48.31 46.3536 48.1105C46.4942 47.9959 46.7649 47.5888 46.9551 47.2058L47.3011 46.5095L47.8522 47.1165C48.1553 47.4503 48.4848 47.7234 48.5843 47.7234C48.8574 47.7234 49.4908 46.8457 49.6571 46.2366C49.738 45.9404 49.8562 45.6979 49.9198 45.6979C49.9833 45.6979 50.3394 46.0547 50.711 46.4908L51.3868 47.2836L51.7571 46.3419C51.9609 45.8238 52.1527 45.3371 52.1836 45.2601C52.2264 45.1537 52.404 45.1559 52.9259 45.2692C53.3033 45.3512 53.7988 45.5082 54.0271 45.6183C54.3711 45.7842 54.4883 45.9559 54.7125 46.622C55.1389 47.8889 55.3916 49.6731 55.2988 50.7617C55.1766 52.1975 54.7558 53.6684 54.1507 54.7742C53.6094 55.7632 52.6791 57.017 52.4863 57.017C52.4304 57.017 52.3844 56.8428 52.3841 56.6298C52.3834 56.0804 52.0402 54.2086 51.8098 53.4968C51.6124 52.8872 50.8979 51.7745 50.7039 51.7745C50.6456 51.7745 50.6304 52.7005 50.6701 53.8323C50.7285 55.5009 50.6984 56.1201 50.5109 57.1046L50.2795 58.319L50.6056 58.7106C50.7848 58.9259 51.3603 59.5326 51.8842 60.0588C52.4082 60.585 53.1479 61.3491 53.528 61.7567L54.2192 62.4979H53.4593H52.6995L52.5274 61.9604C52.4327 61.6648 52.3126 61.3985 52.2604 61.3688C52.2082 61.339 52.0088 61.9676 51.8173 62.7654C51.6257 63.5632 51.4562 64.2278 51.4405 64.2422C51.3983 64.2812 48.9712 63.2926 48.896 63.2057C48.8605 63.1646 48.6411 63.097 48.4084 63.0551C48.0066 62.9831 47.9927 62.9922 48.1343 63.2361C48.2767 63.4816 48.5178 65.4782 48.4185 65.5897C48.3923 65.6192 47.7598 65.0831 47.0131 64.3982L45.6554 63.1532L45.732 63.6894C45.7741 63.9843 45.8365 64.4132 45.8706 64.6426L45.9326 65.0596L45.0562 64.2218C43.9832 63.1961 40.26 59.4796 39.9481 59.1228C39.7313 58.8748 39.7353 58.8124 40.0424 57.6448C40.4116 56.2415 41.1583 54.0822 42.0707 51.7787C42.4454 50.8329 42.6906 50.0259 42.6678 49.8127C42.6306 49.4625 42.6075 49.4794 41.938 50.3447C41.5578 50.8362 41.0783 51.5105 40.8725 51.843L40.4984 52.4477L38.5921 52.83C36.4812 53.2535 34.5365 53.5667 32.099 53.8757C30.9065 54.0269 29.5373 54.0823 26.866 54.0875C23.6104 54.094 23.1059 54.068 21.8269 53.828C21.0452 53.6812 20.1198 53.4808 19.7706 53.3825C19.4213 53.2842 19.1134 53.2243 19.0863 53.2493C19.0591 53.2742 19.4211 53.5473 19.8903 53.8561C21.8252 55.1294 23.9421 55.7413 27.7382 56.1251C28.1469 56.1663 28.4811 56.2216 28.4811 56.2477C28.4811 56.3383 26.0307 59.5811 25.449 60.2605C24.6152 61.2342 23.2916 62.1982 22.0236 62.7552C19.7091 63.7719 18.0651 65.0022 16.9754 66.5329C16.1547 67.6856 15.6062 68.9939 15.2273 70.7024C14.8471 72.417 14.6168 75.3903 14.7309 77.1139C14.8126 78.3495 14.7989 78.4747 14.5387 78.8629C14.254 79.2878 13.3759 79.7745 12.8942 79.7745C12.7518 79.7745 12.3333 79.6918 11.9641 79.5906C11.4413 79.4474 11.2229 79.3091 10.9773 78.9651C10.4779 78.266 10.2397 77.2482 10.2416 75.8224C10.2433 74.4846 10.4815 73.0453 10.9233 71.7024C11.3488 70.4095 12.3977 68.5851 13.447 67.3132C16.0532 64.1538 17.5014 61.7885 18.0938 59.7233C18.754 57.4219 18.4586 54.9628 17.2908 53.0359C16.8467 52.3034 15.8043 51.2627 14.9182 50.6677C14.5251 50.4038 14.1824 50.1723 14.1566 50.1533C14.1306 50.1344 14.4069 49.8036 14.7703 49.4183C15.1338 49.033 15.4311 48.6833 15.4311 48.6412C15.4311 48.5602 13.155 47.8853 10.6051 47.2104C9.76287 46.9874 9.02251 46.7302 8.95972 46.6387C8.87806 46.5198 8.84485 46.5149 8.84343 46.6213C8.8424 46.7033 8.68605 46.7702 8.49599 46.7702H8.15036L8.42053 47.0383C8.62442 47.2408 8.85299 48.0058 9.35354 50.1617C9.7183 51.7321 10.031 53.0302 10.0486 53.0464C10.066 53.0626 10.6954 52.5729 11.4471 51.9583L12.8139 50.8408L13.3149 51.2085C14.8003 52.2981 15.786 53.4479 16.2108 54.5862C16.5448 55.4813 16.6532 56.7839 16.4795 57.8159C16.1427 59.8176 15.0996 61.6392 12.9565 63.9677C10.4934 66.6439 9.61532 67.9175 8.85816 69.9119C8.25863 71.4909 8.03329 72.8064 8.04621 74.6511C8.05926 76.4957 8.35425 78.0325 8.89912 79.0946C9.32357 79.9221 10.3077 80.7498 11.2964 81.1108C12.278 81.4694 13.7341 81.4703 14.4786 81.1129C15.1934 80.7697 16.0187 79.8822 16.2586 79.1991C16.3659 78.893 16.663 77.4676 16.9184 76.0315C17.4283 73.1656 18.0443 70.7831 18.6503 69.3344C19.1975 68.0258 20.1424 66.5604 21.0198 65.6597C21.5291 65.1369 22.343 64.5418 23.6039 63.7703C24.7447 63.0724 25.8273 62.2934 26.4508 61.7221C27.0042 61.215 28.2107 59.882 29.1321 58.7597C30.0535 57.6374 30.938 56.5848 31.0979 56.4206C31.3631 56.148 31.5624 56.104 33.3911 55.9137C34.4925 55.7991 36.2078 55.552 37.2027 55.3648C38.1976 55.1775 39.0322 55.0402 39.0572 55.0598C39.0823 55.0794 38.9818 55.4339 38.8338 55.8477C38.4959 56.7926 38.1958 58.112 38.1555 58.8295C38.125 59.3724 38.1459 59.4032 39.6843 61.0909C40.5422 62.032 41.92 63.4525 42.746 64.2476L44.248 65.6933L41.5761 68.2126C38.9832 70.6574 38.2875 71.2339 38.4758 70.7816C38.5223 70.6696 38.6267 70.0814 38.7076 69.4744C38.8926 68.0855 38.7293 66.9549 38.1898 65.892C37.9733 65.4652 37.545 64.896 37.224 64.6082C36.1338 63.6311 34.2857 63.0301 31.9351 62.8882C30.7015 62.8138 26.9306 63.0762 26.9306 63.2366C26.9306 63.4147 27.7448 63.6727 29.1272 63.9327C33.2912 64.716 35.9067 66.0664 36.6082 67.7951C36.7574 68.1632 36.8797 68.7343 36.8797 69.0643C36.8797 69.3943 36.7313 70.076 36.5499 70.579C36.0534 71.9562 34.7926 74.2143 33.812 75.4823C32.9043 76.656 30.2164 79.2527 29.0186 80.113L28.3287 80.6085H32.3911C35.031 80.6085 36.5974 80.6547 36.8643 80.7405C37.5297 80.9545 37.7065 81.4108 37.7823 83.1106L37.8487 84.6L38.278 84.0638C38.5142 83.7689 38.7606 83.5277 38.8257 83.5277C38.8908 83.5277 39.388 83.1048 39.9305 82.5881L40.917 81.6483L41.8759 81.7232C42.7562 81.7918 42.9136 81.7674 43.798 81.4249L44.7614 81.0521L44.7607 79.9664C44.7605 79.3694 44.6775 77.6209 44.5765 76.0809C44.4754 74.5409 44.3566 72.5492 44.3122 71.6548L44.2318 70.0289L44.6134 69.7782C44.8234 69.6404 45.0265 69.5277 45.065 69.5277C45.1034 69.5277 45.4112 69.9528 45.7488 70.4725C46.2341 71.2192 46.4049 71.3957 46.5634 71.3144C46.6738 71.2578 46.9605 70.7765 47.2004 70.2446C47.5209 69.5346 47.6925 69.2877 47.8465 69.3156C47.9837 69.3402 48.0455 69.4556 48.025 69.6491C48.008 69.8116 47.8434 71.4728 47.6593 73.3404C47.4751 75.2081 47.2214 77.5672 47.0953 78.583C46.9279 79.9322 46.9047 80.4661 47.009 80.5648C47.2252 80.7691 51.0605 82.0383 51.4621 82.0383C51.6551 82.0383 52.0412 82.1455 52.3201 82.2766C52.6148 82.4152 53.082 82.5149 53.4364 82.5149C54.0494 82.5149 54.2415 82.6145 54.64 83.1391C54.7465 83.2794 54.8786 83.3526 54.9335 83.302C54.9885 83.2514 55.0334 82.8613 55.0334 82.4351C55.0334 81.7338 54.9991 81.633 54.6709 81.3726C54.4171 81.1714 54.1518 81.0851 53.7868 81.0851C53.461 81.0851 53.1421 80.9958 52.9368 80.8468C52.6017 80.6038 52.0089 80.5498 51.5448 80.72C51.3549 80.7897 50.9181 80.6451 49.8974 80.1746C49.1334 79.8224 48.5065 79.4677 48.5043 79.3863C48.502 79.3049 48.8062 76.6245 49.1806 73.4298C49.6341 69.559 49.9099 67.6213 50.0072 67.6213C50.2006 67.6213 53.0307 70.3191 53.0307 70.5034C53.0307 70.7429 52.3536 71.3149 52.0698 71.3154C51.7032 71.316 51.0224 71.7167 50.7596 72.0868C50.6397 72.2553 50.4912 72.7539 50.4296 73.1946C50.368 73.6352 50.281 74.2495 50.2366 74.5597C50.1699 75.024 50.2154 75.2345 50.4934 75.7512C50.6792 76.0963 51.0383 76.5932 51.2913 76.8553L51.7514 77.3319L51.6875 76.2596C51.6362 75.4012 51.6475 75.2942 51.744 75.7234C51.926 76.5311 52.5895 77.6808 53.1228 78.1127C53.3838 78.324 54.0839 78.7122 54.6786 78.9753C55.5545 79.3629 55.9424 79.4646 56.7204 79.5106C57.8469 79.5773 59.1227 79.3756 59.7232 79.036C60.271 78.7261 61.3969 77.4389 62.2056 76.1982C62.7807 75.3159 63.7374 73.2637 63.9285 72.5025C63.9978 72.2266 63.81 72.0634 61.7563 70.613L59.5082 69.0255L57.5521 66.4467C55.8632 64.2202 55.6327 63.8629 55.8638 63.83C56.1785 63.7853 56.1988 63.6591 55.9495 63.298C55.8494 63.1529 55.2417 62.1634 54.5992 61.0994L53.431 59.1647L54.2347 58.1803C55.2237 56.9685 55.9919 55.6228 56.5361 54.1479C56.889 53.1919 56.959 52.8086 57.009 51.5611C57.0445 50.6737 57.0063 49.8052 56.9119 49.3568C56.7077 48.3879 56.1559 47.1852 55.5218 46.3276C55.2416 45.9485 54.9775 45.4399 54.9351 45.1976C54.8124 44.4962 54.4814 43.9706 53.5807 43.0461C53.1182 42.5714 52.6491 42.0089 52.5384 41.7961C52.3628 41.4587 52.3589 41.3062 52.5074 40.6046C52.7441 39.4865 53.1277 38.5817 53.5298 38.1937C53.7173 38.0128 54.2485 37.7438 54.7104 37.5956C56.4936 37.0242 58.5416 35.9083 59.1968 35.1511C59.3942 34.9229 59.6232 34.7362 59.7057 34.7362C59.9411 34.7362 60.5245 35.4412 60.5267 35.7283C60.5279 35.8707 60.5763 36.0564 60.6345 36.1408C60.8067 36.3913 61.3216 34.667 61.3941 33.5968C61.4487 32.7889 61.4175 32.5614 61.1976 32.167C60.8926 31.6199 60.378 31.1518 59.7707 30.8691C59.1001 30.5568 57.7301 30.3325 56.4547 30.3258L55.2918 30.3197L54.9042 29.6988C53.5301 27.4978 49.1691 27.5681 44.8319 29.8613C43.2695 30.6875 41.9223 31.6536 40.7436 32.7931C39.8792 33.6287 38.6886 35.066 38.6886 35.2739C38.6886 35.3147 38.7904 35.3216 38.9147 35.2893C39.039 35.257 39.3395 35.1935 39.5825 35.1482L40.0241 35.0659L39.7367 35.4075C39.1917 36.0552 38.6886 36.8088 38.6886 36.9775C38.6886 37.113 38.8299 37.1304 39.3992 37.0647C39.7901 37.0197 40.1099 37.015 40.1099 37.0545C40.1099 37.0938 39.9416 37.4331 39.7362 37.8087C39.5306 38.1841 39.2044 38.9587 39.0112 39.53C38.6938 40.4693 38.6368 40.5573 38.4171 40.4489C38.0113 40.2486 37.1456 39.0939 36.8461 38.3536C36.6123 37.7753 36.5657 37.4198 36.5755 36.2851C36.5849 35.1969 36.6589 34.6702 36.9345 33.7262C37.1254 33.0724 37.8084 31.2762 38.4521 29.7347C39.0958 28.1931 39.7682 26.4226 39.9462 25.8C40.5248 23.7769 40.3525 21.7494 39.4049 19.4279C39.2249 18.9871 38.6559 17.9219 38.1402 17.0607C37.6246 16.1996 36.9475 14.9854 36.6355 14.3625C35.8774 12.8487 34.964 10.241 34.2879 7.65961C33.8024 5.80613 33.7024 5.54472 33.4789 5.54472C33.2345 5.54472 33.2276 5.60239 33.3137 6.94472ZM9.91611 9.53621C9.95617 9.66727 10.0567 10.0154 10.1393 10.3098C10.222 10.6043 10.6012 11.4353 10.982 12.1566C12.4793 14.9933 14.3035 17.4695 16.3153 19.3961C17.7221 20.7436 19.772 22.1729 21.4175 22.9538C22.1161 23.2853 22.7157 23.5307 22.75 23.4991C22.8177 23.4368 21.9783 22.5761 19.7509 20.4238C16.6868 17.4631 13.386 13.8316 11.1002 10.9064C10.4089 10.0217 9.87606 9.40514 9.91611 9.53621ZM8.84149 19.7858C8.84149 20.0282 10.4609 22.8065 11.1663 23.7745C12.1766 25.1606 14.2225 27.1253 15.511 27.9467C17.1883 29.016 19.6697 29.9649 20.4335 29.8292C20.5798 29.8032 20.1759 29.5121 19.3061 29.0166C16.1623 27.2254 13.224 24.6507 10.4004 21.2128C9.77166 20.4473 8.84149 19.5958 8.84149 19.7858ZM9.6263 28.6616C9.81172 29.455 10.5613 30.7919 11.418 31.8574C12.6932 33.4434 14.3905 34.5171 16.2513 34.915C16.8563 35.0444 17.6177 35.0905 18.7626 35.0674L20.4056 35.0341L19.695 34.718C19.3041 34.5441 18.4299 34.2087 17.7523 33.9726C14.9632 33.0006 12.4339 31.2903 10.1624 28.8404L9.50149 28.1275L9.6263 28.6616ZM52.4914 29.6773C53.2732 29.8914 53.9673 30.4702 54.1907 31.0943L54.3428 31.5192L55.528 31.521C56.92 31.523 58.167 31.7669 58.9502 32.1901C59.2693 32.3625 59.6739 32.73 59.8888 33.0423C60.3923 33.7745 60.3865 33.9974 59.8727 33.6599C59.3385 33.3092 58.6279 33.2375 58.0171 33.4729C57.7399 33.5796 57.1617 33.6639 56.7058 33.6639C56.2572 33.6639 55.7352 33.7182 55.5457 33.7846C55.3562 33.851 54.4816 34.0118 53.6021 34.1419C52.7225 34.2721 51.7677 34.4653 51.4802 34.5714C51.1927 34.6775 50.7556 34.9816 50.5089 35.2475C50.2623 35.5132 50.0802 35.7488 50.1045 35.7711C50.1287 35.7934 50.5366 35.6769 51.011 35.5122C51.7369 35.2602 52.0941 35.2128 53.2639 35.2128C54.1336 35.2128 54.9186 35.1433 55.3606 35.0273C55.7491 34.9253 56.2606 34.8468 56.4974 34.853C56.7339 34.859 57.2497 34.7281 57.6436 34.5619C58.3512 34.2631 58.8453 34.1755 58.8448 34.349C58.8444 34.4999 57.8005 35.0562 56.7131 35.4852C56.1446 35.7094 54.9043 36.1182 53.957 36.3936L52.2345 36.8942L51.9735 37.4384C51.6621 38.0875 51.5287 39.7808 51.6677 41.3198C51.7468 42.1953 51.827 42.4516 52.202 43.0256C52.4446 43.3972 52.6431 43.7137 52.6431 43.729C52.6431 43.7441 52.3397 43.684 51.9689 43.5954C51.598 43.5066 51.2201 43.4341 51.129 43.4341C51.0147 43.4341 50.9634 43.634 50.9634 44.0796C50.9634 45.2208 50.9104 45.2261 49.7863 44.1954C49.2298 43.6854 48.7292 43.3097 48.6738 43.3604C48.6184 43.4113 48.5439 44.0519 48.5084 44.7839L48.4438 46.1149L47.6894 45.0128C47.2743 44.4067 46.8818 43.9107 46.8172 43.9107C46.7525 43.9107 46.6995 43.9327 46.6995 43.9596C46.6995 44.0583 46.0237 46.3558 45.9706 46.4373C45.8383 46.6411 45.4794 46.3173 44.8762 45.4503C44.1463 44.401 43.1636 43.5094 41.7289 42.5948L40.7559 41.9745L40.7568 41.3043C40.7585 40.0187 41.4164 38.0843 42.4812 36.2339C42.7412 35.7822 42.9261 35.3871 42.8921 35.3557C42.8581 35.3243 42.4746 35.3908 42.04 35.5033C41.6052 35.6156 41.228 35.6878 41.2017 35.6637C41.1755 35.6393 41.6104 35.282 42.1682 34.8695C42.726 34.4569 43.3777 33.9296 43.6165 33.6973L44.0507 33.2753L43.5339 33.3429C43.2496 33.38 42.7263 33.4444 42.371 33.4857L41.725 33.5611L42.048 33.3111C42.2257 33.1736 42.976 32.6836 43.7153 32.2225C46.4218 30.5344 49.168 29.532 51.166 29.5031C51.5262 29.4979 52.1226 29.5762 52.4914 29.6773ZM49.5467 30.6402C49.3042 30.8285 48.9459 31.3146 48.7378 31.7381C48.5322 32.156 48.3946 32.5262 48.4319 32.5607C48.4691 32.5951 48.7197 32.4452 48.9884 32.2276C49.4282 31.8715 49.4816 31.8549 49.5222 32.0629C49.5469 32.1897 49.7178 32.4412 49.9018 32.6213C50.1682 32.8821 50.3522 32.949 50.8037 32.949C51.2583 32.949 51.4458 32.8799 51.7486 32.6007C52.0309 32.3404 52.1262 32.1403 52.1262 31.8085C52.1262 31.4577 52.2211 31.2796 52.5785 30.9595C53.1021 30.4906 53.1677 30.2664 52.74 30.4074C52.3804 30.5258 51.7802 30.5231 50.7635 30.3983C50.022 30.3073 49.9599 30.3196 49.5467 30.6402ZM10.945 34.4965C10.9873 34.7905 11.2587 35.4607 11.5484 35.9858C12.476 37.6673 13.8809 38.9625 15.6249 39.7443C17.152 40.4288 18.2332 40.6189 20.4021 40.5846C21.0148 40.575 21.0316 40.5662 20.7642 40.3934C20.61 40.2938 19.9924 40.0226 19.3919 39.7907C18.0512 39.2733 16.2906 38.3235 14.9601 37.4001C14.4096 37.0181 13.2638 36.0882 12.4138 35.3336L10.8684 33.9617L10.945 34.4965ZM12.3251 40.6341C13.842 42.9751 14.8892 44.0647 16.1062 44.5685C16.7047 44.8161 17.1721 44.9106 18.0193 44.9551C18.636 44.9875 19.7445 44.9458 20.4828 44.8624L21.825 44.7109L21.3092 44.5032C21.0254 44.389 20.2745 44.2058 19.6405 44.0961C17.4637 43.7192 16.4205 43.1915 12.4638 40.4658L12.0163 40.1575L12.3251 40.6341ZM13.8806 44.804C13.8806 44.8432 14.0913 45.181 14.349 45.5547C15.4006 47.0798 16.8581 48.3213 18.4767 49.0706C19.6137 49.5969 20.6515 49.7927 22.3437 49.7997C23.1965 49.8034 24.2421 49.7612 24.667 49.7061C25.4263 49.6075 25.4339 49.6029 25.0968 49.44C24.9081 49.3489 24.1802 49.1717 23.4792 49.0465C21.0422 48.6107 18.578 47.5946 15.7023 45.8394C14.8781 45.3363 14.131 44.8815 14.0421 44.8288C13.9534 44.776 13.8806 44.765 13.8806 44.804ZM12.3243 50.6265C12.292 50.6554 11.9394 50.7163 11.5408 50.7618L10.8161 50.8445L10.351 49.7309C10.0952 49.1182 9.84686 48.5098 9.79905 48.3787C9.75125 48.2477 10.313 48.6879 11.0476 49.3571C11.7821 50.0263 12.3567 50.5975 12.3243 50.6265ZM54.5343 64.8741C55.5096 66.4473 56.6811 68.0841 57.5425 69.0767C57.8681 69.4518 59.021 70.4589 60.1048 71.3148C61.1886 72.1706 62.0753 72.9295 62.0753 73.0012C62.0753 73.0728 61.7055 73.8405 61.2535 74.7072C60.4016 76.3408 59.6353 77.4799 59.0526 77.9789C58.7642 78.2258 58.5543 78.2761 57.627 78.321C56.7739 78.3622 56.3489 78.3201 55.6543 78.1256C55.0931 77.9684 54.5692 77.7199 54.2229 77.4465C53.9225 77.2094 53.6767 76.9795 53.6767 76.9354C53.6767 76.8913 53.9352 76.8553 54.2509 76.8553C54.7238 76.8553 54.9018 76.7869 55.2585 76.4681C55.4968 76.2551 55.7773 76.0809 55.8817 76.0809C55.9862 76.0809 56.2856 76.2149 56.5471 76.3787C56.8085 76.5426 57.0982 76.6764 57.1908 76.6761C57.5281 76.6753 58.1825 76.2055 58.5699 75.6864C58.9553 75.1697 59.5476 73.9485 59.4543 73.8625C59.4288 73.839 58.9992 73.7485 58.4997 73.6614C57.3959 73.469 56.5054 73.0085 56.0051 72.3715C55.7992 72.1095 55.6116 71.842 55.5881 71.777C55.507 71.5527 55.1137 71.8122 55.0351 72.1418C54.968 72.4232 54.8422 72.504 54.1839 72.6879C53.4788 72.8847 53.3902 72.9478 53.1673 73.4123C52.9879 73.7863 52.7786 73.9892 52.3772 74.1781L51.831 74.4349L51.9187 73.9283C52.0779 73.011 52.2914 72.8267 54.2801 71.8893C55.2979 71.4095 56.1308 70.9819 56.1312 70.9389C56.1314 70.8957 54.6346 69.5324 52.8046 67.9092C49.8893 65.3229 48.9914 64.3957 49.2086 64.1955C49.2405 64.1661 49.9677 64.5856 50.8247 65.1279C51.6816 65.6701 52.4174 66.0819 52.4596 66.0429C52.6278 65.8879 52.7663 65.0091 52.7692 64.0785L52.7723 63.0974L53.2266 63.2973C53.593 63.4583 53.8459 63.7634 54.5343 64.8741ZM47.8064 66.5036C48.278 66.8353 48.3346 67.0734 48.1658 68.0157L48.0845 68.4696L47.6602 68.0904L47.2358 67.7111L46.7969 68.5141L46.358 69.317L45.9403 68.7166C45.2865 67.777 45.2529 67.7694 44.6468 68.4215C44.1626 68.9424 44.1174 68.9659 44.1213 68.6936C44.124 68.4979 44.404 68.1142 44.938 67.5745L45.7506 66.7532L46.3333 67.0681C46.6538 67.2413 46.9471 67.383 46.9849 67.383C47.0228 67.383 47.0924 67.1149 47.1396 66.7872C47.1866 66.4596 47.2561 66.1915 47.294 66.1915C47.3318 66.1915 47.5624 66.3319 47.8064 66.5036ZM42.6898 72.8936C42.8523 74.4827 43.083 76.6847 43.2024 77.7869L43.4195 79.7909L43.0773 80.0156C42.7938 80.2017 42.5816 80.2297 41.8424 80.1782C41.1366 80.1289 40.8552 80.1612 40.4975 80.3325C40.2488 80.4515 39.9008 80.7557 39.7242 81.0083L39.403 81.4676L39.3053 81.0341C39.2517 80.7958 39.1252 80.4551 39.0243 80.277C38.7497 79.7922 38.1431 79.3079 37.646 79.1763C37.0639 79.0224 35.5222 79.0282 33.9043 79.1905C33.186 79.2626 32.5657 79.2913 32.5255 79.2544C32.4854 79.2173 32.8627 78.7821 33.3639 78.2871C34.8512 76.8186 36.6151 74.5619 37.6662 72.7827C37.8107 72.5381 38.1922 72.2919 38.9582 71.949C39.5561 71.6814 40.5395 71.1381 41.1435 70.7416C41.7476 70.345 42.2762 70.0169 42.3181 70.0125C42.36 70.008 42.5274 71.3045 42.6898 72.8936ZM25.9762 74.1145C25.3756 75.3287 24.0091 77.4557 23.1304 78.5443C21.8973 80.0716 20.2731 81.494 18.8714 82.274C18.5962 82.4272 17.9275 82.731 17.3855 82.9493C16.8436 83.1675 16.4447 83.3467 16.4993 83.3475C16.5537 83.3483 17.3095 83.4528 18.179 83.58C21.689 84.0929 23.4565 84.2295 26.6722 84.2361C29.4573 84.2417 29.9125 84.216 30.4594 84.0214C30.8013 83.8998 31.0506 83.7723 31.0134 83.738C30.9762 83.7037 30.144 83.6286 29.1643 83.5713C27.1739 83.4549 22.1799 83.0108 21.9128 82.9264C21.7058 82.8611 21.8976 82.5337 23.4193 80.3543C24.6801 78.5484 25.8546 76.4129 26.3922 74.9489C26.8689 73.6509 26.941 73.1839 26.6722 73.1348C26.54 73.1106 26.3188 73.4218 25.9762 74.1145ZM55.7083 74.0241C55.9409 74.1646 56.2922 74.2281 56.8019 74.2218L57.553 74.2124V74.5927C57.553 75.0505 57.3147 75.7234 57.1527 75.7234C57.0886 75.7234 57.0362 75.674 57.0362 75.6134C57.0362 75.5529 56.8572 75.3384 56.6386 75.1368C56.0922 74.6328 55.5275 74.639 54.8892 75.1558C54.5663 75.4172 54.3048 75.531 54.0772 75.5092C53.6769 75.4706 51.8537 74.8977 51.6847 74.7574C51.4485 74.5611 51.9806 74.518 52.3666 74.7021C52.5826 74.805 52.9458 74.8894 53.1735 74.8894C53.4869 74.8894 53.7044 74.7761 54.0686 74.4229C54.4847 74.0197 54.6701 73.9283 55.2641 73.8332C55.3199 73.8243 55.5198 73.9102 55.7083 74.0241ZM35.148 80.869C35.2046 80.9551 35.4139 81.264 35.613 81.5553C35.8756 81.9393 35.9752 82.2374 35.9752 82.6395C35.9752 83.0705 35.8861 83.3076 35.5748 83.7038L35.1743 84.2136L35.7992 84.1272C36.7921 83.9898 37.3422 83.6608 37.3988 83.1702C37.4676 82.5742 37.3676 82.2546 36.9878 81.8556C36.5911 81.4391 34.9414 80.5543 35.148 80.869ZM32.8742 82.2354C33.6965 82.6796 34.0371 82.9916 34.0371 83.301C34.0371 83.4484 33.8866 83.7339 33.7026 83.9355L33.3681 84.3021H34.0765C34.68 84.3021 34.8445 84.2509 35.1863 83.9565C35.4717 83.7106 35.5876 83.5019 35.5876 83.2337C35.5876 83.0264 35.5248 82.7484 35.4479 82.6161C35.2072 82.2013 34.3344 81.9245 33.2618 81.9229L32.2928 81.9214L32.8742 82.2354ZM43.7025 82.7206C43.8587 82.923 44.2581 83.2543 44.5899 83.457C45.0813 83.7571 45.3256 83.8255 45.9056 83.8255C46.7587 83.8255 47.433 83.5496 48.25 82.8664L48.8314 82.38L48.3792 82.4526C46.8035 82.7051 45.8587 82.7524 44.8048 82.6317C44.1873 82.5609 43.6228 82.4691 43.5503 82.4278C43.4778 82.3866 43.5463 82.5182 43.7025 82.7206ZM3.80237 86.8454C3.80237 87.6883 3.84165 87.8724 4.06079 88.0553C4.20292 88.1739 4.3192 88.3124 4.3192 88.3632C4.3192 88.414 4.01285 88.5375 3.63828 88.638C2.66431 88.899 1.78491 89.4814 1.13461 90.2962C-0.348185 92.1535 -0.381778 94.9949 1.05838 96.7478C1.67767 97.5018 2.43457 98.0323 3.37831 98.3737C3.97047 98.588 4.39324 98.6455 5.41747 98.6514C6.60606 98.658 6.77855 98.6286 7.57008 98.2841C8.04337 98.0782 8.69626 97.684 9.02109 97.4079C9.34579 97.1319 9.77257 96.6035 9.96948 96.2339C10.2844 95.6426 10.3274 95.4254 10.3274 94.4298C10.3274 93.4697 10.2793 93.2079 10.0111 92.7052C9.60783 91.9493 8.81798 91.221 7.99828 90.8491C7.4746 90.6114 7.16424 90.5583 6.32193 90.5622C5.51503 90.5658 5.15583 90.6266 4.6846 90.839C3.91168 91.1874 3.18928 91.8357 2.88461 92.4542C2.56611 93.1009 2.56417 94.3252 2.8806 94.966C3.15956 95.5308 3.9905 96.2538 4.67168 96.5243C5.63803 96.9081 7.04589 96.6993 7.78638 96.0624C8.85416 95.144 8.88168 93.2767 7.83858 92.5201C7.04098 91.9416 5.683 91.9252 4.96124 92.4853C4.22889 93.0535 4.0104 93.764 4.37063 94.4062C4.785 95.1453 5.60974 95.4864 6.32025 95.2126C6.85143 95.0079 7.16178 94.6035 7.16178 94.116C7.16178 93.838 7.05506 93.6533 6.76421 93.4276C6.28588 93.0565 5.71026 93.0279 5.35287 93.3575C5.04303 93.6432 5.02119 94.0421 5.29563 94.4032C5.43479 94.5865 5.62886 94.6681 5.92578 94.6681C6.44351 94.6681 6.69793 94.4209 6.6111 94.0023C6.55567 93.7348 6.57195 93.7156 6.73049 93.8618C7.11268 94.2144 6.44067 95.0255 5.76646 95.0255C5.59914 95.0255 5.29227 94.8689 5.0845 94.6773C4.56819 94.2011 4.56367 93.5904 5.07288 93.1207C5.27418 92.9351 5.6755 92.7179 5.96467 92.6379C6.42219 92.5115 6.55489 92.5217 6.98593 92.7165C8.04169 93.1936 8.37763 94.3004 7.72875 95.1639C7.37188 95.6389 6.51613 96.0984 5.99038 96.0972C5.02197 96.0951 4.02202 95.5144 3.61062 94.7148C3.4893 94.4792 3.39226 94.0271 3.39498 93.7101C3.40751 92.218 4.87467 91.0847 6.58345 91.2473C6.9566 91.2828 7.4463 91.3998 7.67177 91.5074C8.29959 91.8067 9.08802 92.5132 9.39515 93.0515C9.78471 93.7341 9.77295 94.8706 9.36789 95.713C8.99124 96.4961 7.88109 97.4632 7.12251 97.6691C6.82429 97.7501 6.08613 97.8184 5.48208 97.8209C4.56044 97.8248 4.26765 97.7754 3.66205 97.5134C3.26499 97.3417 2.71974 96.9979 2.45021 96.7495C2.18081 96.501 1.77884 95.9444 1.55699 95.5127C1.19314 94.8047 1.1536 94.6164 1.1536 93.594C1.1536 92.5524 1.18823 92.3953 1.57986 91.6611C2.25653 90.3925 2.98306 89.8576 4.53627 89.4845C5.18386 89.329 8.98181 89.3064 34.4893 89.3064C59.9968 89.3064 63.7948 89.329 64.4424 89.4845C65.9956 89.8576 66.7221 90.3925 67.3988 91.6611C67.7904 92.3953 67.825 92.5524 67.825 93.594C67.825 94.6164 67.7855 94.8047 67.4216 95.5127C67.1998 95.9444 66.7978 96.501 66.5284 96.7495C66.2589 96.9979 65.7136 97.3417 65.3166 97.5134C64.711 97.7754 64.4182 97.8248 63.4966 97.8209C62.8925 97.8184 62.1544 97.7501 61.8561 97.6691C61.0976 97.4632 59.9874 96.4961 59.6108 95.713C59.2057 94.8706 59.1939 93.7341 59.5835 93.0515C59.8906 92.5132 60.679 91.8067 61.3069 91.5074C61.5323 91.3998 62.022 91.2828 62.3952 91.2473C63.6707 91.1259 64.7901 91.6917 65.3694 92.7505C65.5317 93.0472 65.5775 93.3586 65.5396 93.9078C65.4967 94.5279 65.4185 94.7382 65.0922 95.1105C64.5876 95.6861 64.079 95.9587 63.3335 96.0528C62.872 96.1112 62.613 96.0708 62.164 95.8703C61.8423 95.7267 61.438 95.4143 61.2499 95.1639C60.601 94.3004 60.937 93.1936 61.9927 92.7165C62.4238 92.5217 62.5564 92.5115 63.014 92.6379C64.2243 92.9724 64.6566 93.9742 63.8941 94.6773C63.4041 95.1292 62.943 95.1292 62.4529 94.6773C62.0417 94.298 61.9808 94.0547 62.2462 93.8516C62.3825 93.7472 62.4066 93.7878 62.3644 94.0522C62.2969 94.4771 62.5779 94.6956 63.1287 94.6464C63.4303 94.6195 63.6091 94.5161 63.7467 94.289C64.1403 93.6392 63.5065 92.9714 62.6784 93.163C61.9091 93.3411 61.5724 94.1741 62.0276 94.7733C62.1435 94.9259 62.4272 95.1236 62.6584 95.2126C63.3689 95.4864 64.1936 95.1453 64.608 94.4062C64.9682 93.764 64.7498 93.0535 64.0174 92.4853C63.2956 91.9252 61.9377 91.9416 61.1401 92.5201C60.097 93.2767 60.1245 95.144 61.1923 96.0624C61.9328 96.6993 63.3406 96.9081 64.307 96.5243C64.9881 96.2538 65.8191 95.5308 66.098 94.966C66.4145 94.3252 66.4125 93.1009 66.094 92.4542C65.7894 91.8357 65.067 91.1874 64.294 90.839C63.8228 90.6266 63.4636 90.5658 62.6567 90.5622C61.8144 90.5583 61.5034 90.6115 60.977 90.8497C60.063 91.2632 59.1826 92.1371 58.8424 92.9688C58.6144 93.5262 58.5715 93.8371 58.6146 94.6214C58.6551 95.3611 58.7496 95.742 59.0174 96.2468C59.2098 96.6094 59.6317 97.1309 59.9551 97.4058C60.2784 97.6806 60.9314 98.0751 61.406 98.2825C62.202 98.6303 62.3695 98.659 63.5612 98.6518C64.5826 98.6456 65.0089 98.5877 65.5965 98.375C68.0524 97.4862 69.4379 95.0264 68.8754 92.5537C68.537 91.0661 67.7369 89.8684 66.6299 89.1922C66.2951 88.9878 65.7148 88.7384 65.3404 88.638C64.9658 88.5375 64.6594 88.414 64.6594 88.3632C64.6594 88.3124 64.7757 88.1739 64.9179 88.0553C65.137 87.8724 65.1763 87.6883 65.1763 86.8454V85.8511H34.4893H3.80237V86.8454ZM64.1426 86.9234V87.2809H34.4893H4.83604V86.9234V86.566H34.4893H64.1426V86.9234ZM63.5612 88.0596C63.2362 88.1969 58.5397 88.2233 34.4893 88.2233C10.4389 88.2233 5.74243 88.1969 5.41747 88.0596C5.08748 87.9202 9.40523 87.8959 34.4893 87.8959C59.5734 87.8959 63.8912 87.9202 63.5612 88.0596ZM39.593 91.6211C39.593 91.8222 40.1948 92.2851 40.4562 92.2851C40.6677 92.2851 41.2728 91.7593 41.2728 91.5756C41.2728 91.3827 40.7929 91.4288 40.7091 91.6298C40.6683 91.7281 40.544 91.8085 40.4329 91.8085C40.3218 91.8085 40.1975 91.7281 40.1567 91.6298C40.0619 91.4022 39.593 91.395 39.593 91.6211ZM17.3358 92.4551C17.0686 92.5432 16.7595 92.6845 16.6489 92.7692C16.0539 93.2245 15.8951 94.3317 16.3304 94.9899C16.664 95.4946 17.2124 95.7404 18.0044 95.7404C18.5444 95.7404 18.7281 95.6791 19.1075 95.3719C19.6977 94.894 19.921 94.2442 19.7138 93.6068C19.5478 93.0958 18.7975 92.4043 18.409 92.4043C18.2751 92.4043 18.0881 92.3797 17.9936 92.3497C17.8989 92.3197 17.6028 92.3671 17.3358 92.4551ZM27.7277 92.4063C27.1601 92.5263 26.5727 93.0596 26.3904 93.6205C26.1882 94.2432 26.4169 94.8988 27.0013 95.3719C27.3807 95.6791 27.5644 95.7404 28.1044 95.7404C28.4608 95.7404 28.9265 95.6574 29.1393 95.5559C30.3078 94.9987 30.324 93.1441 29.1652 92.6055C28.6415 92.3621 28.2161 92.3031 27.7277 92.4063ZM49.5639 92.4035C48.9948 92.5275 48.4085 93.061 48.2266 93.6205C48.0244 94.2432 48.2531 94.8988 48.8375 95.3719C49.2169 95.6791 49.4006 95.7404 49.9406 95.7404C51.1864 95.7404 51.8665 95.1151 51.8673 93.9689C51.8678 93.3846 51.8245 93.2894 51.3662 92.8668C51.0902 92.6124 50.7462 92.4043 50.6015 92.4043C50.4569 92.4043 50.261 92.383 50.1664 92.3571C50.0717 92.3312 49.8006 92.3521 49.5639 92.4035ZM13.3638 92.7617C13.3638 93.0635 13.414 93.1192 13.6868 93.1192H14.0098V94.4298V95.7404H14.462H14.9143V94.4298V93.1192H15.2373C15.5101 93.1192 15.5603 93.0635 15.5603 92.7617V92.4043H14.462H13.3638V92.7617ZM20.7286 94.0723V95.7404H21.1163C21.4888 95.7404 21.5039 95.7198 21.5039 95.2115V94.6827L22.053 94.6065C22.355 94.5647 22.706 94.4602 22.8332 94.3743C23.1665 94.1491 23.3243 93.5426 23.1616 93.1122C23.0872 92.9154 22.8611 92.6757 22.6591 92.5794C22.4549 92.4819 21.9453 92.4043 21.5104 92.4043H20.7286V94.0723ZM24.0881 94.0723V95.7404H24.4757H24.8633V94.4298V93.1192H25.3801C25.8683 93.1192 25.897 93.0993 25.897 92.7617V92.4043H24.9925H24.0881V94.0723ZM30.9361 94.0723V95.7404H31.7699C32.2284 95.7404 32.7453 95.6809 32.9185 95.6082C33.2528 95.4677 33.5203 95.0473 33.5203 94.6625C33.5203 94.5345 33.3982 94.3172 33.2489 94.1796C33.0516 93.9976 33.0163 93.8936 33.1197 93.7983C33.2798 93.6507 33.3078 93.0094 33.163 92.8094C32.9687 92.541 32.4814 92.4043 31.7199 92.4043H30.9361V94.0723ZM34.4247 94.0723V95.7404H35.1293C35.5168 95.7404 35.9755 95.6809 36.1487 95.6082C36.5024 95.4595 36.7505 95.0429 36.7505 94.5974C36.7505 94.2426 36.2194 93.7149 35.8624 93.7149C35.3124 93.7149 35.2 93.5915 35.2 92.9873C35.2 92.4189 35.1903 92.4043 34.8123 92.4043H34.4247V94.0723ZM37.0089 94.0723V95.7404H37.4611H37.9133V94.0723V92.4043H37.4611H37.0089V94.0723ZM38.947 94.0723V95.7404H39.258C39.5039 95.7404 39.7268 95.5258 40.324 94.7146L41.0789 93.6887L41.1163 94.7146L41.1536 95.7404H41.5362H41.9188V94.0723V92.4043L41.5635 92.4082C41.2653 92.4114 41.0941 92.5673 40.4975 93.3788L39.7869 94.3454L39.7494 93.3748L39.7118 92.4043H39.3295H38.947V94.0723ZM45.4212 92.6723C45.3613 92.8197 45.1473 93.4096 44.9456 93.983C44.7348 94.5822 44.5079 95.0255 44.4117 95.0255C44.2952 95.0255 44.2445 95.2242 44.2445 95.6809C44.2445 96.3295 44.2484 96.3362 44.6322 96.3362C44.9594 96.3362 45.0198 96.2898 45.0198 96.0383C45.0198 95.7471 45.0414 95.7404 45.9888 95.7404C46.9363 95.7404 46.9579 95.7471 46.9579 96.0383C46.9579 96.2898 47.0183 96.3362 47.3455 96.3362C47.7249 96.3362 47.7332 96.3233 47.7332 95.7367C47.7332 95.3236 47.675 95.1167 47.5463 95.0711C47.4436 95.0347 47.148 94.4198 46.8896 93.7047L46.4198 92.4043H45.975C45.6322 92.4043 45.5052 92.4657 45.4212 92.6723ZM52.7723 94.0723V95.7404H53.1599H53.5475L53.5608 94.5191L53.574 93.2979L53.9884 94.4894C54.3524 95.5362 54.4383 95.6809 54.6958 95.6809C54.9524 95.6809 55.0427 95.532 55.4188 94.4894L55.8486 93.2979L55.861 94.5191L55.8733 95.7404H56.2609H56.6485V94.0723V92.4043H56.0692H55.4898L55.1417 93.4766C54.9502 94.0664 54.755 94.5489 54.7077 94.5489C54.6605 94.5489 54.4614 94.0664 54.2652 93.4766L53.9085 92.4043H53.3404H52.7723V94.0723ZM18.6025 93.2925C18.8319 93.5039 18.9197 93.7149 18.9197 94.0538C18.9197 94.6273 18.6112 94.9992 18.0527 95.0987C17.7057 95.1605 17.5739 95.1135 17.2452 94.8103C16.962 94.5491 16.8536 94.3376 16.8565 94.0517C16.8609 93.6223 17.029 93.358 17.4338 93.1439C17.8473 92.9253 18.2614 92.9778 18.6025 93.2925ZM28.6547 93.1323C28.8278 93.2051 29.034 93.3952 29.113 93.5549C29.3557 94.0464 29.2804 94.426 28.8636 94.8103C28.5349 95.1135 28.4031 95.1605 28.056 95.0987C27.4976 94.9992 27.1891 94.6273 27.1891 94.0538C27.1891 93.7149 27.2769 93.5039 27.5063 93.2925C27.8527 92.973 28.17 92.9286 28.6547 93.1323ZM50.4874 93.1386C50.89 93.3364 51.0838 93.6067 51.0884 93.9774C51.0981 94.7316 50.4747 95.2455 49.7527 95.0783C49.2896 94.9712 49.0252 94.594 49.0252 94.0404C49.0252 93.7156 49.1163 93.501 49.3425 93.2925C49.689 92.9728 50.0508 92.9242 50.4874 93.1386ZM22.3437 93.5362C22.3437 93.8524 22.2953 93.8979 21.9238 93.9309C21.5198 93.9669 21.5039 93.9519 21.5039 93.5362C21.5039 93.1205 21.5198 93.1055 21.9238 93.1414C22.2953 93.1744 22.3437 93.22 22.3437 93.5362ZM32.4633 93.3872C32.4337 93.5792 32.3211 93.666 32.0667 93.693C31.7607 93.7255 31.7113 93.6882 31.7113 93.4249C31.7113 93.1631 31.7683 93.1192 32.108 93.1192C32.4454 93.1192 32.4984 93.1592 32.4633 93.3872ZM6.23239 93.8628C6.20474 94.2159 6.12928 94.3793 5.98224 94.4049C5.76556 94.4428 5.35287 94.141 5.35287 93.9447C5.35287 93.7658 5.85226 93.3575 6.07088 93.3575C6.22774 93.3575 6.2634 93.4691 6.23239 93.8628ZM46.0173 95.0033C45.7381 95.0237 45.4888 95.0211 45.4632 94.9977C45.4376 94.9741 45.5409 94.5819 45.6924 94.1263L45.968 93.2979L46.2464 94.1319L46.5248 94.966L46.0173 95.0033ZM63.3674 93.5957C63.5095 93.7268 63.6258 93.8839 63.6258 93.9447C63.6258 94.141 63.2131 94.4428 62.9964 94.4049C62.8494 94.3793 62.7739 94.2159 62.7463 93.8628C62.7152 93.4691 62.7509 93.3575 62.9078 93.3575C63.0184 93.3575 63.2252 93.4647 63.3674 93.5957ZM32.6144 94.4878C32.8769 94.7795 32.6724 95.0255 32.1676 95.0255C31.7467 95.0255 31.7113 94.9978 31.7113 94.6681C31.7113 94.3538 31.7562 94.3106 32.0832 94.3106C32.2876 94.3106 32.5268 94.3904 32.6144 94.4878ZM35.9106 94.6681C35.9106 94.9045 35.8372 94.9737 35.5553 95.0036C35.2346 95.0377 35.2 95.005 35.2 94.6681C35.2 94.3311 35.2346 94.2985 35.5553 94.3326C35.8372 94.3625 35.9106 94.4317 35.9106 94.6681ZM40.0453 97.9315C39.4468 98.1726 38.8349 98.6995 38.5253 99.2405C38.314 99.6097 38.244 99.9394 38.244 100.566C38.244 101.194 38.3139 101.522 38.5264 101.894C38.6817 102.165 39.0509 102.578 39.3468 102.812C40.5851 103.789 42.4886 103.558 43.3641 102.324C43.5385 102.078 43.7189 101.783 43.765 101.668C43.8375 101.487 43.7647 101.46 43.2198 101.46C42.6731 101.46 42.5314 101.514 42.1384 101.877C41.7869 102.201 41.5813 102.294 41.2146 102.294C40.5426 102.294 40.0234 102.004 39.7235 101.462C39.4083 100.892 39.3916 100.266 39.6769 99.7112C39.9194 99.2401 40.2687 98.9937 40.8447 98.8875C41.3465 98.7949 42.0781 99.1003 42.3095 99.499C42.4573 99.7536 42.5688 99.7915 43.1698 99.7915H43.8604L43.6579 99.3447C43.2226 98.3835 42.2151 97.7697 41.0789 97.7732C40.7236 97.7744 40.2585 97.8456 40.0453 97.9315ZM55.4211 97.9442C55.1368 98.0365 54.7462 98.2847 54.5532 98.4957C54.0826 99.0101 53.8899 99.8875 53.9583 101.206C54.0023 102.054 54.0721 102.366 54.2737 102.614C54.7665 103.223 55.1602 103.406 55.9797 103.406C56.8545 103.406 57.4805 103.121 57.8389 102.559C58.3794 101.712 58.2253 100.507 57.4897 99.8284C57.1099 99.4782 56.9829 99.434 56.3559 99.434C55.8243 99.434 55.5605 99.4987 55.2889 99.6958L54.928 99.9575L55.0177 99.6065C55.0669 99.4133 55.2805 99.1079 55.4922 98.9277C55.8454 98.6272 55.9631 98.6 56.909 98.6H57.9406V98.183V97.766L56.9392 97.7712C56.3884 97.7741 55.7053 97.852 55.4211 97.9442ZM12.4593 100.626V103.366H13.1054H13.7514V102.413V101.46H14.4318C15.277 101.46 15.9124 101.162 16.2287 100.618C16.5384 100.086 16.5278 99.3913 16.2007 98.7679C15.8234 98.0491 15.3708 97.8851 13.7642 97.8851H12.4593V100.626ZM14.9758 99.1192C15.1253 99.2202 15.2157 99.4287 15.2157 99.6723C15.2157 100.158 14.9046 100.387 14.2436 100.387H13.7514V99.6723V98.9575H14.2436C14.5142 98.9575 14.8437 99.0302 14.9758 99.1192ZM18.0799 99.374C17.7956 99.4663 17.4015 99.7185 17.2042 99.9342C16.0481 101.198 16.7676 103.197 18.4631 103.431C18.9149 103.494 19.1643 103.455 19.6206 103.251C19.948 103.105 20.3171 102.82 20.4653 102.599C20.6102 102.383 20.7286 102.172 20.7286 102.131C20.7286 102.089 20.4961 102.055 20.2118 102.055C19.8672 102.055 19.6088 102.135 19.4366 102.294C19.0767 102.625 18.3955 102.607 18.0378 102.256C17.5223 101.75 17.6412 101.698 19.3074 101.698C20.8293 101.698 20.8579 101.693 20.8571 101.43C20.8545 100.456 20.1532 99.5387 19.2502 99.3291C18.9345 99.2558 18.6582 99.1981 18.6364 99.201C18.6145 99.2038 18.3641 99.2818 18.0799 99.374ZM29.9011 99.583C29.6662 99.7304 29.3587 99.9945 29.2179 100.17C28.9048 100.56 28.7871 101.526 28.9854 102.08C29.0661 102.305 29.3275 102.664 29.5662 102.878C30.5912 103.794 32.3242 103.531 32.9224 102.368C33.1928 101.843 33.1918 100.836 32.9203 100.309C32.8035 100.082 32.4994 99.7653 32.2443 99.6055C31.8887 99.3827 31.6112 99.3149 31.0545 99.3149C30.5141 99.3149 30.219 99.3835 29.9011 99.583ZM49.6637 99.637C49.4353 99.8141 49.1692 100.134 49.0723 100.348C48.8402 100.86 48.8473 101.98 49.0852 102.405C49.358 102.891 49.9677 103.324 50.5131 103.418C50.8588 103.478 51.1216 103.438 51.4914 103.269C51.8851 103.089 51.997 103.075 51.997 103.202C51.997 103.317 52.1713 103.366 52.5785 103.366H53.1599V101.4V99.434H52.5785C52.2562 99.434 51.997 99.4902 51.997 99.56C51.997 99.6305 51.8708 99.6043 51.7098 99.5004C51.5394 99.3902 51.1498 99.3149 50.7507 99.3149C50.2089 99.3149 49.9983 99.3773 49.6637 99.637ZM21.5039 101.4V103.366H22.0853H22.6668V101.817V100.268H23.2482C23.8265 100.268 23.8296 100.266 23.8296 99.8511V99.434H22.6668H21.5039V101.4ZM24.4757 101.4V103.366L24.9602 103.362C25.4323 103.357 25.4646 103.328 26.22 102.2L26.9952 101.043L27.0322 102.204L27.0692 103.366H27.6459H28.2227V101.4V99.434L27.6736 99.4345L27.1245 99.4349L26.3492 100.537L25.574 101.638L25.5367 100.536L25.4997 99.434H24.9876H24.4757V101.4ZM33.9079 101.4V103.366H34.4188H34.9298L34.9679 102.562L35.0062 101.757L35.6845 101.721L36.3628 101.685V102.526V103.366H36.9443H37.5257V101.4V99.434H36.9443H36.3628V100.149V100.864H35.6522H34.9416V100.149V99.434H34.4247H33.9079V101.4ZM44.503 101.4V103.366H45.0844H45.6658V102.532V101.698H46.3059H46.9462L46.9843 102.502L47.0225 103.306L47.5717 103.343L48.1208 103.38V101.407V99.434H47.5393H46.9579V100.149V100.864H46.3119H45.6658V100.149V99.434H45.0844H44.503V101.4ZM8.66797 100.44L8.30062 101.089L8.65621 101.691C8.98853 102.254 9.04435 102.294 9.51027 102.294H10.0088L9.66881 101.675L9.32887 101.056L9.66519 100.424L10.0015 99.7915L9.51841 99.7917C9.06476 99.7921 9.01295 99.8315 8.66797 100.44ZM10.2858 100.408L9.89996 101.024L10.2375 101.659C10.5569 102.259 10.6014 102.294 11.0649 102.294C11.3344 102.294 11.5549 102.258 11.5549 102.215C11.5549 102.171 11.4078 101.904 11.2281 101.622L10.9015 101.108L11.2281 100.513C11.4078 100.186 11.5549 99.89 11.5549 99.855C11.5549 99.8201 11.3561 99.7915 11.1134 99.7915C10.7173 99.7915 10.6319 99.8551 10.2858 100.408ZM59.055 100.424L59.3914 101.056L59.0514 101.675L58.7115 102.294H59.2099C59.6769 102.294 59.7313 102.255 60.07 101.681L60.4315 101.069L60.0582 100.43C59.7095 99.8344 59.6531 99.7923 59.2018 99.7918L58.7187 99.7915L59.055 100.424ZM60.4014 99.8809C60.4046 99.9301 60.5438 100.211 60.7107 100.505L61.0142 101.041L60.7049 101.604C60.5347 101.913 60.3956 102.198 60.3956 102.237C60.3956 102.276 60.6033 102.291 60.8574 102.271C61.2565 102.239 61.3659 102.158 61.6627 101.674L62.0063 101.114L61.6546 100.453C61.3274 99.8376 61.2712 99.7915 60.8492 99.7915C60.5997 99.7915 60.3981 99.8316 60.4014 99.8809ZM19.219 100.286C19.5384 100.441 19.6901 100.616 19.693 100.834C19.6945 100.94 19.4161 100.983 18.7259 100.983C18.1379 100.983 17.7569 100.934 17.7569 100.858C17.7569 100.638 18.3824 100.149 18.6639 100.149C18.8139 100.149 19.0637 100.211 19.219 100.286ZM31.7081 100.503C32.4535 101.191 32.0152 102.413 31.0232 102.413C30.4158 102.413 29.9964 101.975 29.9964 101.34C29.9964 100.996 30.0837 100.769 30.295 100.561C30.6686 100.194 31.3431 100.167 31.7081 100.503ZM51.6798 100.561C52.1032 100.951 52.1213 101.739 51.7161 102.137C51.1667 102.676 50.1892 102.397 49.9836 101.641C49.6989 100.596 50.8931 99.835 51.6798 100.561ZM56.7683 100.701C56.9156 100.874 57.0362 101.188 57.0362 101.4C57.0362 101.612 56.9156 101.926 56.7683 102.099C56.5722 102.329 56.3822 102.413 56.0577 102.413C55.432 102.413 55.098 102.068 55.098 101.423C55.098 100.764 55.4491 100.387 56.0627 100.387C56.3818 100.387 56.5732 100.472 56.7683 100.701ZM9.36517 104.967C9.25354 105.091 9.24889 105.203 9.34838 105.374C9.45471 105.558 9.667 105.626 10.2941 105.679C10.7388 105.716 22.5471 105.734 36.5347 105.718C61.492 105.69 61.9702 105.685 62.1492 105.459C62.3081 105.259 62.3042 105.201 62.1188 105.013C61.9144 104.804 60.8776 104.796 35.7125 104.796C13.1054 104.796 9.49813 104.819 9.36517 104.967ZM9.38287 106.791C9.42422 106.989 10.7841 107 35.7814 107C60.7787 107 62.1386 106.989 62.1799 106.791C62.2213 106.593 60.8947 106.583 35.7814 106.583C10.6681 106.583 9.34153 106.593 9.38287 106.791Z" fill="black"/>
</svg>
