<svg width="26" height="26" viewBox="0 0 26 26" fill="none" xmlns="http://www.w3.org/2000/svg">
<path fill-rule="evenodd" clip-rule="evenodd" d="M7.41151 8.46622C7.28581 8.50685 7.04231 8.62507 7.04231 8.6455C7.04231 8.65798 8.2457 9.81132 9.7165 11.2085C11.1873 12.6057 12.4441 13.7758 12.5094 13.8088C12.6741 13.892 12.9075 13.8859 13.0765 13.7939C13.1521 13.7527 14.3968 12.5947 15.8423 11.2204C17.288 9.84619 18.4908 8.69788 18.5152 8.6686C18.5539 8.62221 18.541 8.60551 18.4145 8.53856L18.2694 8.46176L12.8656 8.45588C9.89354 8.45261 7.4392 8.45727 7.41151 8.46622ZM16.7926 10.9947C15.648 12.0836 14.7116 12.9877 14.7116 13.0038C14.7116 13.0316 18.8405 16.9695 18.8907 16.9895C18.9039 16.9947 18.9356 16.9498 18.9612 16.8897C19 16.7986 19.0078 16.149 19.0078 13.0037C19.0078 9.87894 18.9998 9.2084 18.9618 9.11893C18.9364 9.05946 18.9062 9.01168 18.8946 9.01278C18.883 9.01388 17.9371 9.90572 16.7926 10.9947ZM6.66666 9.11749C6.63135 9.17885 6.62102 9.92828 6.6138 12.9411C6.60675 15.8968 6.61383 16.7146 6.64736 16.8124C6.67076 16.8806 6.70261 16.9364 6.71815 16.9364C6.75037 16.9363 10.8686 13.0339 10.8686 13.0034C10.8686 12.9871 8.18764 10.4295 7.02183 9.33378C6.71499 9.04536 6.70996 9.0423 6.66666 9.11749ZM9.14172 15.3449C7.9981 16.4308 7.05755 17.3338 7.0516 17.3515C7.04566 17.3692 7.1192 17.4201 7.21503 17.4646L7.38929 17.5456H12.8293H18.2694L18.412 17.47C18.4905 17.4285 18.5547 17.388 18.5547 17.3801C18.5547 17.3544 14.3483 13.3697 14.3212 13.3697C14.3068 13.3697 14.1038 13.551 13.8701 13.7726C13.3401 14.2751 13.1966 14.3513 12.7817 14.3511C12.3627 14.3508 12.2179 14.2734 11.6979 13.7718C11.4686 13.5506 11.2676 13.3698 11.251 13.37C11.2345 13.3703 10.2853 14.2589 9.14172 15.3449Z" fill="#3A586E"/>
<circle cx="13" cy="13" r="12.6822" stroke="#3A586E" stroke-width="0.635568"/>
</svg>
