<svg width="63" height="64" viewBox="0 0 63 64" fill="none" xmlns="http://www.w3.org/2000/svg">
<path fill-rule="evenodd" clip-rule="evenodd" d="M30.0008 19.3335C29.2786 19.3948 28.0365 19.605 27.29 19.7925C25.9387 20.1318 24.7858 20.5765 23.655 21.1947C22.5038 21.824 21.6177 22.4723 20.6856 23.3672C19.5919 24.4171 18.7948 25.4897 18.1584 26.7679C17.7293 27.6295 17.4544 28.3883 17.2602 29.2466C16.8501 31.0598 16.9242 32.7656 17.4866 34.4623C17.8814 35.6532 18.6346 36.9302 19.5396 37.9429C20.0715 38.538 20.9056 39.2725 21.5634 39.725C22.0911 40.088 22.0705 40.0154 21.8645 40.7841C21.75 41.2115 21.4603 41.8224 21.1741 42.2401C21.0799 42.3776 20.5924 42.8983 20.0909 43.3972L19.179 44.3042L20.7937 44.2805C22.3035 44.2584 22.4453 44.2475 22.9751 44.1131C24.2796 43.7823 25.2792 43.2611 26.3303 42.3638L26.6826 42.063L27.5485 42.233C29.1916 42.5556 29.6713 42.5992 31.5872 42.6003C33.5123 42.6014 34.1861 42.5415 35.6384 42.2402C37.1026 41.9365 38.3753 41.4979 39.5896 40.8785C42.4586 39.4152 44.4769 37.162 45.4378 34.3499C46.1884 32.1532 46.1874 29.7663 45.435 27.5457C45.031 26.3533 44.3661 25.1498 43.5782 24.1846C43.0798 23.574 42.1568 22.6974 41.5026 22.2134C40.7172 21.6324 40.0996 21.2615 39.2362 20.8525C38.3764 20.4452 37.489 20.1265 36.531 19.8809C34.8864 19.4594 33.418 19.2911 31.5085 19.305C30.8039 19.3102 30.1255 19.323 30.0008 19.3335Z" fill="#3A586E"/>
<circle cx="31.4606" cy="31.843" r="31.1429" stroke="#3A586E" stroke-width="0.635568"/>
</svg>
