<svg width="26" height="26" viewBox="0 0 26 26" fill="none" xmlns="http://www.w3.org/2000/svg">
<path fill-rule="evenodd" clip-rule="evenodd" d="M12.3965 7.83097C12.0981 7.85627 11.5849 7.94316 11.2764 8.02062C10.718 8.16083 10.2416 8.3446 9.77436 8.60004C9.29867 8.86009 8.9325 9.12797 8.54735 9.49772C8.09544 9.93155 7.76606 10.3748 7.50307 10.903C7.32577 11.259 7.21217 11.5725 7.13194 11.9272C6.96248 12.6764 6.99308 13.3813 7.22549 14.0824C7.38863 14.5745 7.69987 15.1022 8.07383 15.5206C8.29361 15.7665 8.63828 16.0701 8.9101 16.257C9.12814 16.407 9.11961 16.377 9.03451 16.6947C8.98719 16.8713 8.86749 17.1237 8.74921 17.2963C8.71027 17.3531 8.50886 17.5683 8.30161 17.7744L7.92479 18.1492L8.59204 18.1394C9.21591 18.1303 9.27451 18.1258 9.49341 18.0703C10.0325 17.9335 10.4455 17.7182 10.8798 17.3474L11.0254 17.2231L11.3832 17.2934C12.0622 17.4267 12.2604 17.4447 13.0521 17.4451C13.8475 17.4456 14.126 17.4208 14.7261 17.2963C15.3311 17.1708 15.857 16.9896 16.3588 16.7337C17.5443 16.129 18.3783 15.198 18.7753 14.036C19.0855 13.1282 19.0851 12.1419 18.7742 11.2243C18.6072 10.7317 18.3325 10.2343 18.0069 9.83548C17.801 9.58319 17.4196 9.22098 17.1492 9.02097C16.8247 8.78089 16.5695 8.62763 16.2127 8.45862C15.8575 8.29031 15.4908 8.15863 15.0949 8.05716C14.4153 7.88299 13.8086 7.81344 13.0195 7.81917C12.7284 7.82131 12.448 7.82661 12.3965 7.83097Z" fill="#3A586E"/>
<circle cx="13" cy="13" r="12.6822" stroke="#3A586E" stroke-width="0.635568"/>
</svg>
