<svg width="26" height="26" viewBox="0 0 26 26" fill="none" xmlns="http://www.w3.org/2000/svg">
<path fill-rule="evenodd" clip-rule="evenodd" d="M8.79078 7.04859C8.73923 7.06567 8.66403 7.09687 8.62365 7.11789C8.534 7.16462 7.79644 7.86735 7.5775 8.11464C7.39053 8.32586 7.21419 8.65151 7.13054 8.9401C6.88679 9.78096 7.06471 10.8718 7.6459 12.1001C8.06662 12.9892 8.71228 13.9493 9.5368 14.912C9.87028 15.3014 10.8874 16.3013 11.2981 16.6435C12.5202 17.6617 13.6873 18.3617 14.7748 18.7287C15.2805 18.8993 15.6896 18.9818 16.1371 19.0034C16.6574 19.0284 17.0651 18.9499 17.4845 18.7439C17.7888 18.5943 17.9148 18.4873 18.4921 17.8876C18.9611 17.4005 19.0076 17.3233 19.0076 17.0321C19.0077 16.7086 19.0263 16.7322 17.8076 15.5181C16.801 14.5153 16.7267 14.4465 16.6057 14.406C16.4166 14.3427 16.2006 14.3514 16.0305 14.4293C15.923 14.4785 15.8144 14.5703 15.5177 14.863C15.1301 15.2452 14.9991 15.3381 14.7563 15.4035C14.6086 15.4433 14.3094 15.4375 14.1518 15.3919C13.9828 15.3431 13.6398 15.1521 13.2431 14.886C12.4925 14.3826 11.887 13.8047 11.3454 13.075C11.0144 12.6291 10.7067 12.1064 10.6408 11.8783C10.5839 11.6817 10.5888 11.4024 10.6522 11.2146C10.6798 11.1331 10.7295 11.0224 10.7628 10.9686C10.796 10.9149 10.9849 10.7073 11.1825 10.5073C11.5998 10.0851 11.6662 9.97692 11.6697 9.71405C11.6709 9.62056 11.6545 9.5079 11.6285 9.43019C11.588 9.30931 11.5192 9.23498 10.5161 8.22864C9.33459 7.04327 9.33227 7.04137 9.04177 7.02591C8.95071 7.02106 8.84505 7.03062 8.79078 7.04859Z" fill="#3A586E"/>
<circle cx="13" cy="13" r="12.8032" stroke="#3A586E" stroke-width="0.393542"/>
</svg>
