<svg width="63" height="63" viewBox="0 0 63 63" fill="none" xmlns="http://www.w3.org/2000/svg">
<path fill-rule="evenodd" clip-rule="evenodd" d="M21.2747 17.0579C21.1499 17.0992 20.9679 17.1748 20.8702 17.2256C20.6533 17.3387 18.8683 19.0394 18.3385 19.6378C17.886 20.149 17.4593 20.9371 17.2568 21.6355C16.6669 23.6704 17.0975 26.3104 18.504 29.2827C19.5222 31.4344 21.0847 33.7581 23.0801 36.0878C23.8871 37.0302 26.3487 39.4499 27.3426 40.2781C30.3002 42.7422 33.1245 44.4361 35.7564 45.3242C36.9801 45.7373 37.9703 45.9369 39.0531 45.9891C40.3124 46.0498 41.299 45.8597 42.3139 45.361C43.0504 44.9992 43.3552 44.7401 44.7523 43.2889C45.8873 42.1099 45.9999 41.9231 46 41.2186C46.0001 40.4357 46.0453 40.4927 43.0959 37.5546C40.6598 35.1278 40.4799 34.9613 40.1873 34.8633C39.7295 34.71 39.2069 34.7311 38.7951 34.9196C38.5351 35.0386 38.2723 35.2609 37.5541 35.9691C36.6162 36.894 36.2992 37.119 35.7115 37.2773C35.3541 37.3735 34.6299 37.3596 34.2485 37.2493C33.8397 37.1309 33.0095 36.6687 32.0495 36.0248C30.2331 34.8067 28.7676 33.408 27.4569 31.642C26.656 30.5629 25.9113 29.298 25.7517 28.7461C25.6142 28.2703 25.6259 27.5944 25.7795 27.1399C25.8462 26.9426 25.9665 26.6748 26.047 26.5446C26.1274 26.4146 26.5845 25.9122 27.0628 25.4283C28.0726 24.4065 28.2334 24.1446 28.2417 23.5085C28.2447 23.2822 28.2052 23.0096 28.1421 22.8215C28.0442 22.529 27.8776 22.3491 25.4501 19.9137C22.5907 17.045 22.5851 17.0405 21.8821 17.003C21.6617 16.9913 21.406 17.0144 21.2747 17.0579Z" fill="#3A586E"/>
<circle cx="31.4606" cy="31.4606" r="31.1429" stroke="#3A586E" stroke-width="0.635568"/>
</svg>
