<svg width="63" height="64" viewBox="0 0 63 64" fill="none" xmlns="http://www.w3.org/2000/svg">
<path fill-rule="evenodd" clip-rule="evenodd" d="M17.9365 21.4099C17.6323 21.5082 17.043 21.7943 17.043 21.8438C17.043 21.874 19.9553 24.6651 23.5147 28.0463C27.0741 31.4276 30.1156 34.2594 30.2736 34.3392C30.6722 34.5406 31.237 34.5258 31.6459 34.3032C31.8289 34.2035 34.8411 31.401 38.3395 28.0752C41.838 24.7495 44.7488 21.9705 44.8079 21.8996C44.9017 21.7874 44.8704 21.747 44.5643 21.5849L44.213 21.3991L31.1357 21.3848C23.9431 21.377 18.0035 21.3882 17.9365 21.4099ZM40.6391 27.5289C37.8693 30.1641 35.6031 32.3521 35.6031 32.391C35.6031 32.4583 45.5952 41.9882 45.7166 42.0366C45.7485 42.0493 45.8254 41.9406 45.8873 41.795C45.9812 41.5745 46 40.0026 46 32.3907C46 24.8287 45.9807 23.206 45.8886 22.9895C45.8273 22.8456 45.7542 22.7299 45.7262 22.7326C45.6981 22.7352 43.4089 24.8935 40.6391 27.5289ZM16.1339 22.986C16.0485 23.1345 16.0234 24.9481 16.006 32.2393C15.9889 39.3922 16.0061 41.3715 16.0872 41.6081C16.1438 41.7732 16.2209 41.9082 16.2585 41.9082C16.3365 41.908 26.3027 32.464 26.3027 32.3901C26.3027 32.3505 19.8147 26.1612 16.9934 23.5094C16.2509 22.8114 16.2387 22.804 16.1339 22.986ZM22.1237 38.0566C19.3561 40.6847 17.0799 42.8699 17.0655 42.9128C17.0511 42.9556 17.2291 43.0788 17.461 43.1865L17.8827 43.3823H31.0479H44.213L44.5582 43.1995C44.7481 43.099 44.9035 43.001 44.9035 42.9818C44.9035 42.9197 34.7237 33.2765 34.6582 33.2765C34.6233 33.2765 34.1321 33.7153 33.5665 34.2516C32.284 35.4676 31.9368 35.6521 30.9326 35.6516C29.9185 35.6509 29.5681 35.4636 28.3097 34.2495C27.7549 33.7144 27.2683 33.2769 27.2283 33.2774C27.1883 33.2779 24.8912 35.4285 22.1237 38.0566Z" fill="#3A586E"/>
<circle cx="31.4606" cy="32.382" r="31.1429" stroke="#3A586E" stroke-width="0.635568"/>
</svg>
